<?xml version="1.0" encoding="UTF-8" standalone="no"?>
<!DOCTYPE svg PUBLIC "-//W3C//DTD SVG 1.0//EN" "http://www.w3.org/TR/2001/PR-SVG-20010719/DTD/svg10.dtd">
<svg width="48cm" height="31cm" viewBox="6 4 949 604" xmlns="http://www.w3.org/2000/svg" xmlns:xlink="http://www.w3.org/1999/xlink">
  <g>
    <rect style="fill: #ffffff" x="469.876" y="58.9754" width="74.2" height="36"/>
    <rect style="fill: none; fill-opacity:0; stroke-width: 2; stroke: #000000" x="469.876" y="58.9754" width="74.2" height="36"/>
    <text font-size="12.8" style="fill: #000000;text-anchor:middle;font-family:monospace;font-style:normal;font-weight:normal" x="506.976" y="80.9754">Object</text>
  </g>
  <g>
    <rect style="fill: #ffffff" x="192.064" y="367.394" width="58.8" height="36"/>
    <rect style="fill: none; fill-opacity:0; stroke-width: 2; stroke: #000000" x="192.064" y="367.394" width="58.8" height="36"/>
    <rect style="fill: none; fill-opacity:0; stroke-width: 2; stroke: #000000" x="197.064" y="372.394" width="48.8" height="26"/>
    <text font-size="12.8" style="fill: #000000;text-anchor:middle;font-family:monospace;font-style:normal;font-weight:normal" x="221.464" y="389.394">Star</text>
  </g>
  <g>
    <rect style="fill: #ffffff" x="718.35" y="261.958" width="89.6" height="36"/>
    <rect style="fill: none; fill-opacity:0; stroke-width: 2; stroke: #000000" x="718.35" y="261.958" width="89.6" height="36"/>
    <text font-size="12.8" style="fill: #000000;text-anchor:middle;font-family:monospace;font-style:normal;font-weight:normal" x="763.15" y="283.958">Asteroid</text>
  </g>
  <g>
    <rect style="fill: #ffffff" x="443.316" y="325.77" width="74.2" height="36"/>
    <rect style="fill: none; fill-opacity:0; stroke-width: 2; stroke: #000000" x="443.316" y="325.77" width="74.2" height="36"/>
    <text font-size="12.8" style="fill: #000000;text-anchor:middle;font-family:monospace;font-style:normal;font-weight:normal" x="480.416" y="347.77">Planet</text>
  </g>
  <g>
    <polygon style="fill: #ffffff" points="241.714,208.433 277.114,187.193 312.514,208.433 277.114,229.673 "/>
    <polygon style="fill: none; fill-opacity:0; stroke-width: 2; stroke: #000000" points="241.714,208.433 277.114,187.193 312.514,208.433 277.114,229.673 "/>
    <text font-size="12.8" style="fill: #000000;text-anchor:start;font-family:monospace;font-style:normal;font-weight:normal" x="281.114" y="181.193"/>
    <text font-size="12.8" style="fill: #000000;text-anchor:start;font-family:monospace;font-style:normal;font-weight:normal" x="281.114" y="251.673"/>
    <text font-size="12.8" style="fill: #000000;text-anchor:middle;font-family:monospace;font-style:normal;font-weight:normal" x="277.114" y="212.433">is_a</text>
  </g>
  <g>
    <polygon style="fill: #ffffff" points="543.918,179.112 579.318,157.872 614.718,179.112 579.318,200.352 "/>
    <polygon style="fill: none; fill-opacity:0; stroke-width: 2; stroke: #000000" points="543.918,179.112 579.318,157.872 614.718,179.112 579.318,200.352 "/>
    <text font-size="12.8" style="fill: #000000;text-anchor:start;font-family:monospace;font-style:normal;font-weight:normal" x="583.318" y="151.872">1</text>
    <text font-size="12.8" style="fill: #000000;text-anchor:start;font-family:monospace;font-style:normal;font-weight:normal" x="583.318" y="222.352">1</text>
    <text font-size="12.8" style="fill: #000000;text-anchor:middle;font-family:monospace;font-style:normal;font-weight:normal" x="579.318" y="183.112">is_a</text>
  </g>
  <g>
    <polygon style="fill: #ffffff" points="445.016,207.853 480.416,186.613 515.816,207.853 480.416,229.093 "/>
    <polygon style="fill: none; fill-opacity:0; stroke-width: 2; stroke: #000000" points="445.016,207.853 480.416,186.613 515.816,207.853 480.416,229.093 "/>
    <text font-size="12.8" style="fill: #000000;text-anchor:start;font-family:monospace;font-style:normal;font-weight:normal" x="484.416" y="180.613">1</text>
    <text font-size="12.8" style="fill: #000000;text-anchor:start;font-family:monospace;font-style:normal;font-weight:normal" x="484.416" y="251.093">1</text>
    <text font-size="12.8" style="fill: #000000;text-anchor:middle;font-family:monospace;font-style:normal;font-weight:normal" x="480.416" y="211.853">is_a</text>
  </g>
  <g>
    <ellipse style="fill: #ffffff" cx="495.082" cy="23.8142" rx="35.4" ry="18"/>
    <ellipse style="fill: none; fill-opacity:0; stroke-width: 2; stroke: #000000" cx="495.082" cy="23.8142" rx="35.4" ry="18"/>
    <text font-size="12.8" style="fill: #000000;text-anchor:middle;font-family:monospace;font-style:normal;font-weight:normal" x="495.082" y="27.8142">Mass</text>
  </g>
  <line style="fill: none; fill-opacity:0; stroke-width: 2; stroke: #000000" x1="502.736" y1="58.0263" x2="499.301" y2="42.6724"/>
  <g>
    <ellipse style="fill: #ffffff" cx="359.184" cy="53.4586" rx="50.8" ry="18"/>
    <ellipse style="fill: none; fill-opacity:0; stroke-width: 2; stroke: #000000" cx="359.184" cy="53.4586" rx="50.8" ry="18"/>
    <text font-size="12.8" style="fill: #000000;text-anchor:middle;font-family:monospace;font-style:italic;font-weight:700" x="359.184" y="57.4586">ObjectID</text>
  </g>
  <line style="fill: none; fill-opacity:0; stroke-width: 2; stroke: #000000" x1="469.451" y1="71.0043" x2="405.946" y2="60.8995"/>
  <g>
    <ellipse style="fill: #ffffff" cx="342.77" cy="348.938" rx="58.5" ry="18"/>
    <ellipse style="fill: none; fill-opacity:0; stroke-width: 2; stroke: #000000" cx="342.77" cy="348.938" rx="58.5" ry="18"/>
    <text font-size="12.8" style="fill: #000000;text-anchor:middle;font-family:monospace;font-style:normal;font-weight:normal" x="342.77" y="352.938">Luminosity</text>
  </g>
  <line style="fill: none; fill-opacity:0; stroke-width: 2; stroke: #000000" x1="251.865" y1="376.258" x2="299.975" y2="361.799"/>
  <g>
    <ellipse style="fill: #ffffff" cx="887.472" cy="214.369" rx="66.2" ry="18"/>
    <ellipse style="fill: none; fill-opacity:0; stroke-width: 2; stroke: #000000" cx="887.472" cy="214.369" rx="66.2" ry="18"/>
    <text font-size="12.8" style="fill: #000000;text-anchor:middle;font-family:monospace;font-style:normal;font-weight:normal" x="887.472" y="218.369">Eccentricity</text>
  </g>
  <line style="fill: none; fill-opacity:0; stroke-width: 2; stroke: #000000" x1="799.163" y1="260.959" x2="856.263" y2="230.834"/>
  <g>
    <ellipse style="fill: #ffffff" cx="367.476" cy="400.236" rx="62.35" ry="18"/>
    <ellipse style="fill: none; fill-opacity:0; stroke-width: 2; stroke: #000000" cx="367.476" cy="400.236" rx="62.35" ry="18"/>
    <text font-size="12.8" style="fill: #000000;text-anchor:middle;font-family:monospace;font-style:normal;font-weight:normal" x="367.476" y="404.236">Year_length</text>
  </g>
  <line style="fill: none; fill-opacity:0; stroke-width: 2; stroke: #000000" x1="442.406" y1="362.774" x2="399.551" y2="384.2"/>
  <g>
    <polyline style="fill: none; fill-opacity:0; stroke-width: 3; stroke-dasharray: 4; stroke: #000000" points="277.114,229.673 277.114,298.029 221.464,298.029 221.464,354.885 "/>
    <path style="fill: #ffffff" d="M 221.464 364.885 C 218.964,364.885 216.464,362.385 216.464,359.885 C 216.464,357.385 218.964,354.885 221.464,354.885 C 223.964,354.885 226.464,357.385 226.464,359.885 C 226.464,362.385 223.964,364.885 221.464,364.885z"/>
    <path style="fill: none; fill-opacity:0; stroke-width: 3; stroke: #000000" d="M 221.464 364.885 C 218.964,364.885 216.464,362.385 216.464,359.885 C 216.464,357.385 218.964,354.885 221.464,354.885 C 223.964,354.885 226.464,357.385 226.464,359.885 C 226.464,362.385 223.964,364.885 221.464,364.885"/>
  </g>
  <g>
    <polyline style="fill: none; fill-opacity:0; stroke-width: 3; stroke-dasharray: 4; stroke: #000000" points="579.318,200.352 579.318,230.65 763.15,230.65 763.15,249.449 "/>
    <path style="fill: #ffffff" d="M 763.15 259.449 C 760.65,259.449 758.15,256.949 758.15,254.449 C 758.15,251.949 760.65,249.449 763.15,249.449 C 765.65,249.449 768.15,251.949 768.15,254.449 C 768.15,256.949 765.65,259.449 763.15,259.449z"/>
    <path style="fill: none; fill-opacity:0; stroke-width: 3; stroke: #000000" d="M 763.15 259.449 C 760.65,259.449 758.15,256.949 758.15,254.449 C 758.15,251.949 760.65,249.449 763.15,249.449 C 765.65,249.449 768.15,251.949 768.15,254.449 C 768.15,256.949 765.65,259.449 763.15,259.449"/>
  </g>
  <g>
    <polyline style="fill: none; fill-opacity:0; stroke-width: 3; stroke-dasharray: 4; stroke: #000000" points="480.416,229.093 480.416,230.593 480.416,323.261 480.416,313.261 "/>
    <path style="fill: #ffffff" d="M 480.416 323.261 C 480.416,320.761 482.916,318.261 485.416,318.261 C 487.916,318.261 490.416,320.761 490.416,323.261 C 490.416,325.761 487.916,328.261 485.416,328.261 C 482.916,328.261 480.416,325.761 480.416,323.261z"/>
    <path style="fill: none; fill-opacity:0; stroke-width: 3; stroke: #000000" d="M 480.416 323.261 C 480.416,320.761 482.916,318.261 485.416,318.261 C 487.916,318.261 490.416,320.761 490.416,323.261 C 490.416,325.761 487.916,328.261 485.416,328.261 C 482.916,328.261 480.416,325.761 480.416,323.261"/>
  </g>
  <g>
    <ellipse style="fill: #ffffff" cx="347.404" cy="290.016" rx="47.05" ry="18"/>
    <ellipse style="fill: none; fill-opacity:0; stroke-width: 2; stroke: #000000" cx="347.404" cy="290.016" rx="47.05" ry="18"/>
    <text font-size="12.8" style="fill: #000000;text-anchor:middle;font-family:monospace;font-style:italic;font-weight:700" x="347.404" y="294.016">Star_id</text>
  </g>
  <line style="fill: none; fill-opacity:0; stroke-width: 2; stroke: #000000" x1="325.451" y1="306.642" x2="246.308" y2="366.579"/>
  <g>
    <ellipse style="fill: #ffffff" cx="624.508" cy="52.0214" rx="50.8" ry="18"/>
    <ellipse style="fill: none; fill-opacity:0; stroke-width: 2; stroke: #000000" cx="624.508" cy="52.0214" rx="50.8" ry="18"/>
    <text font-size="12.8" style="fill: #000000;text-anchor:middle;font-family:monospace;font-style:normal;font-weight:normal" x="624.508" y="56.0214">Avg_dist</text>
  </g>
  <line style="fill: none; fill-opacity:0; stroke-width: 2; stroke: #000000" x1="544.853" y1="68.9336" x2="579.96" y2="61.4797"/>
  <g>
    <ellipse style="fill: #ffffff" cx="644.034" cy="385.286" rx="62.35" ry="18"/>
    <ellipse style="fill: none; fill-opacity:0; stroke-width: 2; stroke: #000000" cx="644.034" cy="385.286" rx="62.35" ry="18"/>
    <text font-size="12.8" style="fill: #000000;text-anchor:middle;font-family:monospace;font-style:italic;font-weight:700" x="644.034" y="389.286">Planet_name</text>
  </g>
  <line style="fill: none; fill-opacity:0; stroke-width: 2; stroke: #000000" x1="596.239" y1="373.159" x2="518.484" y2="353.429"/>
  <g>
    <ellipse style="fill: #ffffff" cx="844.303" cy="132.955" rx="62.825" ry="18"/>
    <ellipse style="fill: none; fill-opacity:0; stroke-width: 2; stroke: #000000" cx="844.303" cy="132.955" rx="62.825" ry="18"/>
    <text font-size="12.8" style="fill: #000000;text-anchor:middle;font-family:monospace;font-style:italic;font-weight:700" x="844.303" y="136.955">Asteroid_id</text>
  </g>
  <line style="fill: none; fill-opacity:0; stroke-width: 2; stroke: #000000" x1="773.636" y1="260.963" x2="834.08" y2="151.474"/>
  <g>
    <ellipse style="fill: #ffffff" cx="606.852" cy="443.78" rx="46.95" ry="18"/>
    <ellipse style="fill: none; fill-opacity:0; stroke-width: 2; stroke: #000000" cx="606.852" cy="443.78" rx="46.95" ry="18"/>
    <text font-size="12.8" style="fill: #000000;text-anchor:middle;font-family:monospace;font-style:normal;font-weight:normal" x="606.852" y="447.78">Star_id</text>
  </g>
  <line style="fill: none; fill-opacity:0; stroke-width: 2; stroke: #000000" x1="504.439" y1="362.772" x2="585.599" y2="426.969"/>
  <g>
    <polygon style="fill: #ffffff" points="39.9976,385.734 83.0976,359.874 126.198,385.734 83.0976,411.594 "/>
    <polygon style="fill: none; fill-opacity:0; stroke-width: 2; stroke: #000000" points="39.9976,385.734 83.0976,359.874 126.198,385.734 83.0976,411.594 "/>
    <text font-size="12.8" style="fill: #000000;text-anchor:start;font-family:monospace;font-style:normal;font-weight:normal" x="87.0976" y="353.874"/>
    <text font-size="12.8" style="fill: #000000;text-anchor:start;font-family:monospace;font-style:normal;font-weight:normal" x="87.0976" y="433.594"/>
    <text font-size="12.8" style="fill: #000000;text-anchor:middle;font-family:monospace;font-style:normal;font-weight:normal" x="83.0976" y="389.734">Orbits</text>
  </g>
  <g>
    <polyline style="fill: none; fill-opacity:0; stroke-width: 3; stroke: #000000" points="126.198,385.734 159.131,385.734 159.131,385.394 180.564,385.394 "/>
    <path style="fill: #ffffff" d="M 190.564 385.394 C 190.564,387.894 188.064,390.394 185.564,390.394 C 183.064,390.394 180.564,387.894 180.564,385.394 C 180.564,382.894 183.064,380.394 185.564,380.394 C 188.064,380.394 190.564,382.894 190.564,385.394z"/>
    <path style="fill: none; fill-opacity:0; stroke-width: 3; stroke: #000000" d="M 190.564 385.394 C 190.564,387.894 188.064,390.394 185.564,390.394 C 183.064,390.394 180.564,387.894 180.564,385.394 C 180.564,382.894 183.064,380.394 185.564,380.394 C 188.064,380.394 190.564,382.894 190.564,385.394"/>
  </g>
  <g>
    <polyline style="fill: none; fill-opacity:0; stroke-width: 3; stroke: #000000" points="83.0976,358.867 83.0976,318.734 83.0976,318.734 83.0976,293.355 "/>
    <path style="fill: #ffffff" d="M 83.0976 283.355 C 85.5976,283.355 88.0976,285.855 88.0976,288.355 C 88.0976,290.855 85.5976,293.355 83.0976,293.355 C 80.5976,293.355 78.0976,290.855 78.0976,288.355 C 78.0976,285.855 80.5976,283.355 83.0976,283.355z"/>
    <path style="fill: none; fill-opacity:0; stroke-width: 3; stroke: #000000" d="M 83.0976 283.355 C 85.5976,283.355 88.0976,285.855 88.0976,288.355 C 88.0976,290.855 85.5976,293.355 83.0976,293.355 C 80.5976,293.355 78.0976,290.855 78.0976,288.355 C 78.0976,285.855 80.5976,283.355 83.0976,283.355"/>
  </g>
  <g>
    <rect style="fill: #ffffff" x="157.198" y="545.774" width="89.6" height="36"/>
    <rect style="fill: none; fill-opacity:0; stroke-width: 2; stroke: #000000" x="157.198" y="545.774" width="89.6" height="36"/>
    <rect style="fill: none; fill-opacity:0; stroke-width: 2; stroke: #000000" x="162.198" y="550.774" width="79.6" height="26"/>
    <text font-size="12.8" style="fill: #000000;text-anchor:middle;font-family:monospace;font-style:normal;font-weight:normal" x="201.998" y="567.774">Elements</text>
  </g>
  <g>
    <ellipse style="fill: #ffffff" cx="76.2156" cy="581.256" rx="62.35" ry="18"/>
    <ellipse style="fill: none; fill-opacity:0; stroke-width: 2; stroke: #000000" cx="76.2156" cy="581.256" rx="62.35" ry="18"/>
    <text font-size="12.8" style="fill: #000000;text-anchor:middle;font-family:monospace;font-style:normal;font-weight:normal" x="76.2156" y="585.256">atomic_mass</text>
  </g>
  <line style="fill: none; fill-opacity:0; stroke-width: 2; stroke: #000000" x1="156.242" y1="570.133" x2="133.364" y2="573.313"/>
  <g>
    <ellipse style="fill: #ffffff" cx="324.588" cy="588.858" rx="70.05" ry="18"/>
    <ellipse style="fill: none; fill-opacity:0; stroke-width: 2; stroke: #000000" cx="324.588" cy="588.858" rx="70.05" ry="18"/>
    <text font-size="12.8" style="fill: #000000;text-anchor:middle;font-family:monospace;font-style:italic;font-weight:700" x="324.588" y="592.858">atomic_number</text>
  </g>
  <line style="fill: none; fill-opacity:0; stroke-width: 2; stroke: #000000" x1="247.797" y1="573.145" x2="268.92" y2="577.467"/>
  <polyline style="fill: none; fill-opacity:0; stroke-width: 3; stroke: #000000" points="201.998,544.765 201.998,525.262 207.498,525.262 207.498,505.76 "/>
  <polyline style="fill: none; fill-opacity:0; stroke-width: 3; stroke: #000000" points="272.556,467.33 294.056,467.33 294.056,385.394 250.864,385.394 "/>
  <g>
    <ellipse style="fill: #ffffff" cx="73.7498" cy="437.434" rx="47.05" ry="18"/>
    <ellipse style="fill: none; fill-opacity:0; stroke-width: 2; stroke: #000000" cx="73.7498" cy="437.434" rx="47.05" ry="18"/>
    <text font-size="12.8" style="fill: #000000;text-anchor:middle;font-family:monospace;font-style:italic;font-weight:700" x="73.7498" y="441.434">Star_id</text>
  </g>
  <line style="fill: none; fill-opacity:0; stroke-width: 2; stroke: #000000" x1="115.318" y1="446.725" x2="142.445" y2="452.789"/>
  <g>
    <rect style="fill: #ffffff" x="143.448" y="428.9" width="128.1" height="76.86"/>
    <rect style="fill: none; fill-opacity:0; stroke-width: 2; stroke: #000000" x="143.448" y="428.9" width="128.1" height="76.86"/>
    <rect style="fill: none; fill-opacity:0; stroke-width: 2; stroke: #000000" x="148.448" y="433.9" width="118.1" height="66.86"/>
    <polygon style="fill: #ffffff" points="143.448,467.33 207.498,428.9 271.548,467.33 207.498,505.76 "/>
    <polygon style="fill: none; fill-opacity:0; stroke-width: 2; stroke: #000000" points="143.448,467.33 207.498,428.9 271.548,467.33 207.498,505.76 "/>
    <text font-size="12.8" style="fill: #000000;text-anchor:middle;font-family:monospace;font-style:normal;font-weight:normal" x="207.498" y="471.33">star_elements</text>
  </g>
  <g>
    <ellipse style="fill: #ffffff" cx="77.6069" cy="518.16" rx="70.05" ry="18"/>
    <ellipse style="fill: none; fill-opacity:0; stroke-width: 2; stroke: #000000" cx="77.6069" cy="518.16" rx="70.05" ry="18"/>
    <text font-size="12.8" style="fill: #000000;text-anchor:middle;font-family:monospace;font-style:italic;font-weight:700" x="77.6069" y="522.16">atomic_number</text>
  </g>
  <line style="fill: none; fill-opacity:0; stroke-width: 2; stroke: #000000" x1="116.961" y1="502.76" x2="142.45" y2="492.785"/>
  <g>
    <rect style="fill: #ffffff" x="710.65" y="468.292" width="105" height="36"/>
    <rect style="fill: none; fill-opacity:0; stroke-width: 2; stroke: #000000" x="710.65" y="468.292" width="105" height="36"/>
    <rect style="fill: none; fill-opacity:0; stroke-width: 2; stroke: #000000" x="715.65" y="473.292" width="95" height="26"/>
    <text font-size="12.8" style="fill: #000000;text-anchor:middle;font-family:monospace;font-style:normal;font-weight:normal" x="763.15" y="490.292">Discoverer</text>
  </g>
  <g>
    <ellipse style="fill: #ffffff" cx="629.37" cy="579.254" rx="54.65" ry="18"/>
    <ellipse style="fill: none; fill-opacity:0; stroke-width: 2; stroke: #000000" cx="629.37" cy="579.254" rx="54.65" ry="18"/>
    <text font-size="12.8" style="fill: #000000;text-anchor:middle;font-family:monospace;font-style:italic;font-weight:700" x="629.37" y="583.254">Firstname</text>
  </g>
  <g>
    <ellipse style="fill: #ffffff" cx="758.656" cy="586.958" rx="46.95" ry="18"/>
    <ellipse style="fill: none; fill-opacity:0; stroke-width: 2; stroke: #000000" cx="758.656" cy="586.958" rx="46.95" ry="18"/>
    <text font-size="12.8" style="fill: #000000;text-anchor:middle;font-family:monospace;font-style:italic;font-weight:700" x="758.656" y="590.958">Surname</text>
  </g>
  <g>
    <ellipse style="fill: #ffffff" cx="623.698" cy="529.212" rx="39.25" ry="18"/>
    <ellipse style="fill: none; fill-opacity:0; stroke-width: 2; stroke: #000000" cx="623.698" cy="529.212" rx="39.25" ry="18"/>
    <text font-size="12.8" style="fill: #000000;text-anchor:middle;font-family:monospace;font-style:normal;font-weight:normal" x="623.698" y="533.212">Title</text>
  </g>
  <line style="fill: none; fill-opacity:0; stroke-width: 2; stroke: #000000" x1="657.242" y1="518.888" x2="709.655" y2="502.756"/>
  <line style="fill: none; fill-opacity:0; stroke-width: 2; stroke: #000000" x1="653.572" y1="562.436" x2="735.813" y2="505.288"/>
  <line style="fill: none; fill-opacity:0; stroke-width: 2; stroke: #000000" x1="759.504" y1="567.973" x2="762.302" y2="505.296"/>
  <g>
    <rect style="fill: #ffffff" x="722.2" y="357.71" width="81.9" height="49.14"/>
    <rect style="fill: none; fill-opacity:0; stroke-width: 2; stroke: #000000" x="722.2" y="357.71" width="81.9" height="49.14"/>
    <rect style="fill: none; fill-opacity:0; stroke-width: 2; stroke: #000000" x="727.2" y="362.71" width="71.9" height="39.14"/>
    <polygon style="fill: #ffffff" points="722.2,382.28 763.15,357.71 804.1,382.28 763.15,406.85 "/>
    <polygon style="fill: none; fill-opacity:0; stroke-width: 2; stroke: #000000" points="722.2,382.28 763.15,357.71 804.1,382.28 763.15,406.85 "/>
    <text font-size="12.8" style="fill: #000000;text-anchor:middle;font-family:monospace;font-style:normal;font-weight:normal" x="763.15" y="386.28">disc_by</text>
  </g>
  <polyline style="fill: none; fill-opacity:0; stroke-width: 3; stroke: #000000" points="763.15,297.958 763.15,299.458 763.15,356.21 763.15,357.71 "/>
  <polyline style="fill: none; fill-opacity:0; stroke-width: 3; stroke: #000000" points="763.15,406.85 763.15,408.35 763.15,466.792 763.15,468.292 "/>
  <g>
    <ellipse style="fill: #ffffff" cx="893.118" cy="324.972" rx="46.95" ry="18"/>
    <ellipse style="fill: none; fill-opacity:0; stroke-width: 2; stroke: #000000" cx="893.118" cy="324.972" rx="46.95" ry="18"/>
    <text font-size="12.8" style="fill: #000000;text-anchor:middle;font-family:monospace;font-style:italic;font-weight:700" x="893.118" y="328.972">Surname</text>
  </g>
  <g>
    <ellipse style="fill: #ffffff" cx="891.442" cy="396.336" rx="54.65" ry="18"/>
    <ellipse style="fill: none; fill-opacity:0; stroke-width: 2; stroke: #000000" cx="891.442" cy="396.336" rx="54.65" ry="18"/>
    <text font-size="12.8" style="fill: #000000;text-anchor:middle;font-family:monospace;font-style:italic;font-weight:700" x="891.442" y="400.336">Firstname</text>
  </g>
  <g>
    <ellipse style="fill: #ffffff" cx="889.231" cy="460.372" rx="62.825" ry="18"/>
    <ellipse style="fill: none; fill-opacity:0; stroke-width: 2; stroke: #000000" cx="889.231" cy="460.372" rx="62.825" ry="18"/>
    <text font-size="12.8" style="fill: #000000;text-anchor:middle;font-family:monospace;font-style:italic;font-weight:700" x="889.231" y="464.372">Asteroid_id</text>
  </g>
  <line style="fill: none; fill-opacity:0; stroke-width: 2; stroke: #000000" x1="862.005" y1="443.509" x2="804.428" y2="407.847"/>
  <line style="fill: none; fill-opacity:0; stroke-width: 2; stroke: #000000" x1="861.514" y1="338.907" x2="805.106" y2="363.78"/>
  <line style="fill: none; fill-opacity:0; stroke-width: 2; stroke: #000000" x1="838.595" y1="390.546" x2="805.097" y2="386.876"/>
  <g>
    <ellipse style="fill: #ffffff" cx="866.34" cy="545.316" rx="66.2" ry="18"/>
    <ellipse style="fill: none; fill-opacity:0; stroke-width: 2; stroke: #000000" cx="866.34" cy="545.316" rx="66.2" ry="18"/>
    <text font-size="12.8" style="fill: #000000;text-anchor:middle;font-family:monospace;font-style:normal;font-weight:normal" x="866.34" y="549.316">Organisation</text>
  </g>
  <line style="fill: none; fill-opacity:0; stroke-width: 2; stroke: #000000" x1="837.053" y1="528.564" x2="796.367" y2="505.292"/>
  <text font-size="12.8" style="fill: #000000;text-anchor:start;font-family:monospace;font-style:normal;font-weight:normal" x="287.012" y="184.747">
    <tspan x="287.012" y="184.747">1</tspan>
  </text>
  <text font-size="12.8" style="fill: #000000;text-anchor:start;font-family:monospace;font-style:normal;font-weight:normal" x="263.466" y="244.45">
    <tspan x="263.466" y="244.45">1</tspan>
  </text>
  <text font-size="12.8" style="fill: #000000;text-anchor:start;font-family:monospace;font-style:normal;font-weight:normal" x="280.026" y="458.318">
    <tspan x="280.026" y="458.318">1</tspan>
  </text>
  <text font-size="12.8" style="fill: #000000;text-anchor:start;font-family:monospace;font-style:normal;font-weight:normal" x="262.328" y="407.634">
    <tspan x="262.328" y="407.634">M</tspan>
  </text>
  <text font-size="12.8" style="fill: #000000;text-anchor:start;font-family:monospace;font-style:normal;font-weight:normal" x="190.328" y="538.634">
    <tspan x="190.328" y="538.634">N</tspan>
  </text>
  <text font-size="12.8" style="fill: #000000;text-anchor:start;font-family:monospace;font-style:normal;font-weight:normal" x="214.328" y="522.634">
    <tspan x="214.328" y="522.634">1</tspan>
  </text>
  <text font-size="12.8" style="fill: #000000;text-anchor:start;font-family:monospace;font-style:normal;font-weight:normal" x="681.824" y="290.132">
    <tspan x="681.824" y="290.132">1</tspan>
  </text>
  <text font-size="12.8" style="fill: #000000;text-anchor:start;font-family:monospace;font-style:normal;font-weight:normal" x="749.208" y="349.054">
    <tspan x="749.208" y="349.054">M</tspan>
  </text>
  <text font-size="12.8" style="fill: #000000;text-anchor:start;font-family:monospace;font-style:normal;font-weight:normal" x="768.69" y="424.958">
    <tspan x="768.69" y="424.958">N</tspan>
  </text>
  <text font-size="12.8" style="fill: #000000;text-anchor:start;font-family:monospace;font-style:normal;font-weight:normal" x="746.376" y="463.528">
    <tspan x="746.376" y="463.528">1</tspan>
  </text>
  <g>
    <rect style="fill: #ffffff" x="15.2566" y="107.47" width="66.5" height="36.002"/>
    <rect style="fill: none; fill-opacity:0; stroke-width: 2; stroke: #000000" x="15.2566" y="107.47" width="66.5" height="36.002"/>
    <text font-size="12.8016" style="fill: #000000;text-anchor:middle;font-family:monospace;font-style:normal;font-weight:normal" x="48.5066" y="129.471">Orbit</text>
  </g>
  <g>
    <rect style="fill: #ffffff" x="22.8976" y="244.848" width="120.4" height="36.002"/>
    <rect style="fill: none; fill-opacity:0; stroke-width: 2; stroke: #000000" x="22.8976" y="244.848" width="120.4" height="36.002"/>
    <rect style="fill: none; fill-opacity:0; stroke-width: 2; stroke: #000000" x="27.8976" y="249.848" width="110.4" height="26.002"/>
    <text font-size="12.8016" style="fill: #000000;text-anchor:middle;font-family:monospace;font-style:normal;font-weight:normal" x="83.0976" y="266.849">Orbit_member</text>
  </g>
  <g>
    <polygon style="fill: #ffffff" points="119.92,125.5 159.17,101.95 198.42,125.5 159.17,149.05 "/>
    <polygon style="fill: none; fill-opacity:0; stroke-width: 2; stroke: #000000" points="119.92,125.5 159.17,101.95 198.42,125.5 159.17,149.05 "/>
    <text font-size="12.8016" style="fill: #000000;text-anchor:start;font-family:monospace;font-style:normal;font-weight:normal" x="163.17" y="95.9496"/>
    <text font-size="12.8016" style="fill: #000000;text-anchor:start;font-family:monospace;font-style:normal;font-weight:normal" x="163.17" y="171.052"/>
    <text font-size="12.8016" style="fill: #000000;text-anchor:middle;font-family:monospace;font-style:normal;font-weight:normal" x="159.17" y="129.5">is_in</text>
  </g>
  <polyline style="fill: none; fill-opacity:0; stroke-width: 3; stroke: #000000" points="82.765,125.471 101.343,125.471 101.343,125.5 119.92,125.5 "/>
  <polyline style="fill: none; fill-opacity:0; stroke-width: 3; stroke: #000000" points="159.17,149.05 180.67,149.05 180.67,262.849 143.298,262.849 "/>
  <g>
    <ellipse style="fill: #ffffff" cx="162.262" cy="309.902" rx="47.05" ry="18"/>
    <ellipse style="fill: none; fill-opacity:0; stroke-width: 2; stroke: #000000" cx="162.262" cy="309.902" rx="47.05" ry="18"/>
    <text font-size="12.8" style="fill: #000000;text-anchor:middle;font-family:monospace;font-style:italic;font-weight:700" x="162.262" y="313.902">Star_id</text>
  </g>
  <g>
    <ellipse style="fill: #ffffff" cx="68.1178" cy="201.406" rx="54.65" ry="18"/>
    <ellipse style="fill: none; fill-opacity:0; stroke-width: 2; stroke: #000000" cx="68.1178" cy="201.406" rx="54.65" ry="18"/>
    <text font-size="12.8" style="fill: #000000;text-anchor:middle;font-family:monospace;font-style:italic;font-weight:700" x="68.1178" y="205.406">Orbit_num</text>
  </g>
  <g>
    <ellipse style="fill: #ffffff" cx="66.4896" cy="45.4508" rx="54.65" ry="18"/>
    <ellipse style="fill: none; fill-opacity:0; stroke-width: 2; stroke: #000000" cx="66.4896" cy="45.4508" rx="54.65" ry="18"/>
    <text font-size="12.8" style="fill: #000000;text-anchor:middle;font-family:monospace;font-style:italic;font-weight:700" x="66.4896" y="49.4508">Orbit_num</text>
  </g>
  <line style="fill: none; fill-opacity:0; stroke-width: 2; stroke: #000000" x1="135.933" y1="294.253" x2="115.074" y2="281.855"/>
  <line style="fill: none; fill-opacity:0; stroke-width: 2; stroke: #000000" x1="72.7295" y1="220.322" x2="78.4658" y2="243.85"/>
  <line style="fill: none; fill-opacity:0; stroke-width: 2; stroke: #000000" x1="62.2375" y1="64.3716" x2="52.7763" y2="106.472"/>
  <g>
    <polyline style="fill: none; fill-opacity:0; stroke-width: 3; stroke-dasharray: 4; stroke: #000000" points="277.114,186.205 277.114,117.476 506.976,117.476 506.976,106.824 "/>
    <polygon style="fill: #000000" points="506.976,99.324 511.976,109.324 506.976,106.824 501.976,109.324 "/>
    <polygon style="fill: none; fill-opacity:0; stroke-width: 3; stroke: #000000" points="506.976,99.324 511.976,109.324 506.976,106.824 501.976,109.324 "/>
  </g>
  <g>
    <polyline style="fill: none; fill-opacity:0; stroke-width: 3; stroke-dasharray: 4; stroke: #000000" points="579.318,156.865 579.318,116.635 506.976,116.635 506.976,105.83 "/>
    <polygon style="fill: #000000" points="506.976,98.3295 511.976,108.33 506.976,105.83 501.976,108.33 "/>
    <polygon style="fill: none; fill-opacity:0; stroke-width: 3; stroke: #000000" points="506.976,98.3295 511.976,108.33 506.976,105.83 501.976,108.33 "/>
  </g>
  <g>
    <polyline style="fill: none; fill-opacity:0; stroke-width: 3; stroke-dasharray: 4; stroke: #000000" points="480.416,185.625 480.416,140.805 506.976,140.805 506.976,106.839 "/>
    <polygon style="fill: #000000" points="506.976,99.3388 511.976,109.339 506.976,106.839 501.976,109.339 "/>
    <polygon style="fill: none; fill-opacity:0; stroke-width: 3; stroke: #000000" points="506.976,99.3388 511.976,109.339 506.976,106.839 501.976,109.339 "/>
  </g>
  <g>
    <ellipse style="fill: #ffffff" cx="170.434" cy="60.2106" rx="43.1" ry="18"/>
    <ellipse style="fill: none; fill-opacity:0; stroke-width: 2; stroke: #000000" cx="170.434" cy="60.2106" rx="43.1" ry="18"/>
    <text font-size="12.8" style="fill: #000000;text-anchor:middle;font-family:monospace;font-style:normal;font-weight:normal" x="170.434" y="64.2106">Radius</text>
  </g>
  <line style="fill: none; fill-opacity:0; stroke-width: 2; stroke: #000000" x1="143.04" y1="74.8727" x2="82.754" y2="107.14"/>
  <text font-size="12.8" style="fill: #000000;text-anchor:start;font-family:monospace;font-style:normal;font-weight:normal" x="88.5628" y="145.225">
    <tspan x="88.5628" y="145.225">1</tspan>
  </text>
  <text font-size="12.8" style="fill: #000000;text-anchor:start;font-family:monospace;font-style:normal;font-weight:normal" x="152.564" y="257.574">
    <tspan x="152.564" y="257.574">M</tspan>
  </text>
  <text font-size="12.8" style="fill: #000000;text-anchor:start;font-family:monospace;font-style:normal;font-weight:normal" x="175.669" y="402.38">
    <tspan x="175.669" y="402.38">1</tspan>
  </text>
  <text font-size="12.8" style="fill: #000000;text-anchor:start;font-family:monospace;font-style:normal;font-weight:normal" x="65.0928" y="307.602">
    <tspan x="65.0928" y="307.602">1</tspan>
  </text>
  <g>
    <ellipse style="fill: #ffffff" cx="627.754" cy="309.292" rx="39.25" ry="18"/>
    <ellipse style="fill: none; fill-opacity:0; stroke-width: 2; stroke: #000000" cx="627.754" cy="309.292" rx="39.25" ry="18"/>
    <text font-size="12.8" style="fill: #000000;text-anchor:middle;font-family:monospace;font-style:normal;font-weight:normal" x="627.754" y="313.292">class</text>
  </g>
  <line style="fill: none; fill-opacity:0; stroke-width: 2; stroke: #000000" x1="518.518" y1="334.854" x2="591.81" y2="317.703"/>
  <g>
    <polygon style="fill: #ffffff" points="448.866,408.188 480.416,389.258 511.966,408.188 480.416,427.118 "/>
    <polygon style="fill: none; fill-opacity:0; stroke-width: 2; stroke: #000000" points="448.866,408.188 480.416,389.258 511.966,408.188 480.416,427.118 "/>
    <text font-size="12.8" style="fill: #000000;text-anchor:end;font-family:monospace;font-style:normal;font-weight:normal" x="442.866" y="402.188"/>
    <text font-size="12.8" style="fill: #000000;text-anchor:start;font-family:monospace;font-style:normal;font-weight:normal" x="517.966" y="402.188"/>
    <text font-size="12.8" style="fill: #000000;text-anchor:middle;font-family:monospace;font-style:normal;font-weight:normal" x="480.416" y="412.188">has</text>
  </g>
  <g>
    <rect style="fill: #ffffff" x="456.766" y="453.282" width="97.3" height="36"/>
    <rect style="fill: none; fill-opacity:0; stroke-width: 2; stroke: #000000" x="456.766" y="453.282" width="97.3" height="36"/>
    <text font-size="12.8" style="fill: #000000;text-anchor:middle;font-family:monospace;font-style:normal;font-weight:normal" x="505.416" y="475.282">Component</text>
  </g>
  <g>
    <ellipse style="fill: #ffffff" cx="378.882" cy="455.968" rx="62.35" ry="18"/>
    <ellipse style="fill: none; fill-opacity:0; stroke-width: 2; stroke: #000000" cx="378.882" cy="455.968" rx="62.35" ry="18"/>
    <text font-size="12.8" style="fill: #000000;text-anchor:middle;font-family:monospace;font-style:italic;font-weight:700" x="378.882" y="459.968">Planet_name</text>
  </g>
  <g>
    <ellipse style="fill: #ffffff" cx="503.528" cy="534.608" rx="66.2" ry="18"/>
    <ellipse style="fill: none; fill-opacity:0; stroke-width: 2; stroke: #000000" cx="503.528" cy="534.608" rx="66.2" ry="18"/>
    <text font-size="12.8" style="fill: #000000;text-anchor:middle;font-family:monospace;font-style:italic;font-weight:700" x="503.528" y="538.608">Component_id</text>
  </g>
  <line style="fill: none; fill-opacity:0; stroke-width: 2; stroke: #000000" x1="504.094" y1="515.607" x2="504.85" y2="490.283"/>
  <line style="fill: none; fill-opacity:0; stroke-width: 2; stroke: #000000" x1="437.361" y1="463.045" x2="455.765" y2="465.273"/>
  <polyline style="fill: none; fill-opacity:0; stroke-width: 3; stroke: #000000" points="480.416,362.779 480.416,364.279 480.416,386.748 480.416,388.248 "/>
  <polyline style="fill: none; fill-opacity:0; stroke-width: 3; stroke: #000000" points="480.416,428.119 480.416,441.2 505.416,441.2 505.416,452.29 "/>
  <g>
    <ellipse style="fill: #ffffff" cx="364.478" cy="508.034" rx="54.65" ry="18"/>
    <ellipse style="fill: none; fill-opacity:0; stroke-width: 2; stroke: #000000" cx="364.478" cy="508.034" rx="54.65" ry="18"/>
    <text font-size="12.8" style="fill: #000000;text-anchor:middle;font-family:monospace;font-style:normal;font-weight:normal" x="364.478" y="512.034">comp_name</text>
  </g>
  <line style="fill: none; fill-opacity:0; stroke-width: 2; stroke: #000000" x1="408.289" y1="496.61" x2="455.781" y2="484.225"/>
  <g>
    <ellipse style="fill: #ffffff" cx="288.228" cy="542.034" rx="35.4" ry="18"/>
    <ellipse style="fill: none; fill-opacity:0; stroke-width: 2; stroke: #000000" cx="288.228" cy="542.034" rx="35.4" ry="18"/>
    <text font-size="12.8" style="fill: #000000;text-anchor:middle;font-family:monospace;font-style:normal;font-weight:normal" x="288.228" y="546.034">name</text>
  </g>
  <line style="fill: none; fill-opacity:0; stroke-width: 2; stroke: #000000" x1="255.544" y1="550.274" x2="246.46" y2="552.564"/>
</svg>
