<?xml version="1.0" encoding="UTF-8" standalone="no"?>
<!DOCTYPE svg PUBLIC "-//W3C//DTD SVG 1.0//EN" "http://www.w3.org/TR/2001/PR-SVG-20010719/DTD/svg10.dtd">
<svg width="40cm" height="20cm" viewBox="16 14 781 384" xmlns="http://www.w3.org/2000/svg" xmlns:xlink="http://www.w3.org/1999/xlink">
  <g>
    <rect style="fill: #ffffff" x="375.782" y="14.4" width="118.4" height="18"/>
    <rect style="fill: none; fill-opacity:0; stroke-width: 2; stroke: #000000" x="375.782" y="14.4" width="118.4" height="18"/>
    <text font-size="11.2" style="fill: #000000;text-anchor:middle;font-family:sans-serif;font-style:normal;font-weight:700" x="434.982" y="28.4">Object</text>
    <rect style="fill: #ffffff" x="375.782" y="32.4" width="118.4" height="52"/>
    <rect style="fill: none; fill-opacity:0; stroke-width: 2; stroke: #000000" x="375.782" y="32.4" width="118.4" height="52"/>
    <polygon style="fill: #000000" points="378.782,42.4 380.782,45.4 382.782,42.4 380.782,39.4 "/>
    <text font-size="12.8" style="fill: #000000;text-anchor:start;font-family:monospace;font-style:normal;font-weight:normal" x="384.782" y="48.4">ObjectID</text>
    <line style="fill: none; fill-opacity:0; stroke-width: 1; stroke: #000000" x1="384.782" y1="50" x2="487.182" y2="50"/>
    <ellipse style="fill: #000000" cx="380.782" cy="58.4" rx="2" ry="2"/>
    <text font-size="12.8" style="fill: #000000;text-anchor:start;font-family:monospace;font-style:normal;font-weight:normal" x="384.782" y="64.4">Mass</text>
    <ellipse style="fill: #000000" cx="380.782" cy="74.4" rx="2" ry="2"/>
    <text font-size="12.8" style="fill: #000000;text-anchor:start;font-family:monospace;font-style:normal;font-weight:normal" x="384.782" y="80.4">Avg_distance</text>
  </g>
  <g>
    <rect style="fill: #ffffff" x="184.112" y="127.161" width="103" height="18"/>
    <rect style="fill: none; fill-opacity:0; stroke-width: 2; stroke: #000000" x="184.112" y="127.161" width="103" height="18"/>
    <text font-size="11.2" style="fill: #000000;text-anchor:middle;font-family:sans-serif;font-style:normal;font-weight:700" x="235.612" y="141.161">Star</text>
    <rect style="fill: #ffffff" x="184.112" y="145.161" width="103" height="36"/>
    <rect style="fill: none; fill-opacity:0; stroke-width: 2; stroke: #000000" x="184.112" y="145.161" width="103" height="36"/>
    <polygon style="fill: #000000" points="187.112,155.161 189.112,158.161 191.112,155.161 189.112,152.161 "/>
    <text font-size="12.8" style="fill: #000000;text-anchor:start;font-family:monospace;font-style:normal;font-weight:normal" x="193.112" y="161.161">Star_id</text>
    <line style="fill: none; fill-opacity:0; stroke-width: 1; stroke: #000000" x1="193.112" y1="162.761" x2="280.112" y2="162.761"/>
    <ellipse style="fill: #000000" cx="189.112" cy="171.161" rx="2" ry="2"/>
    <text font-size="12.8" style="fill: #000000;text-anchor:start;font-family:monospace;font-style:normal;font-weight:normal" x="193.112" y="177.161">Luminosity</text>
  </g>
  <g>
    <rect style="fill: #ffffff" x="340.202" y="204.658" width="110.7" height="18"/>
    <rect style="fill: none; fill-opacity:0; stroke-width: 2; stroke: #000000" x="340.202" y="204.658" width="110.7" height="18"/>
    <text font-size="11.2" style="fill: #000000;text-anchor:middle;font-family:sans-serif;font-style:normal;font-weight:700" x="395.552" y="218.658">Planet</text>
    <rect style="fill: #ffffff" x="340.202" y="222.658" width="110.7" height="68"/>
    <rect style="fill: none; fill-opacity:0; stroke-width: 2; stroke: #000000" x="340.202" y="222.658" width="110.7" height="68"/>
    <polygon style="fill: #000000" points="343.202,232.658 345.202,235.658 347.202,232.658 345.202,229.658 "/>
    <text font-size="12.8" style="fill: #000000;text-anchor:start;font-family:monospace;font-style:normal;font-weight:normal" x="349.202" y="238.658">Planet_id</text>
    <line style="fill: none; fill-opacity:0; stroke-width: 1; stroke: #000000" x1="349.202" y1="240.258" x2="443.902" y2="240.258"/>
    <ellipse style="fill: #000000" cx="345.202" cy="248.658" rx="2" ry="2"/>
    <text font-size="12.8" style="fill: #000000;text-anchor:start;font-family:monospace;font-style:normal;font-weight:normal" x="349.202" y="254.658">year_length</text>
    <ellipse style="fill: none; fill-opacity:0; stroke-width: 0.2; stroke: #000000" cx="345.202" cy="264.658" rx="2" ry="2"/>
    <text font-size="12.8" style="fill: #000000;text-anchor:start;font-family:monospace;font-style:normal;font-weight:normal" x="349.202" y="270.658">composition</text>
    <ellipse style="fill: none; fill-opacity:0; stroke-width: 0.2; stroke: #000000" cx="345.202" cy="280.658" rx="2" ry="2"/>
    <text font-size="12.8" style="fill: #000000;text-anchor:start;font-family:monospace;font-style:normal;font-weight:normal" x="349.202" y="286.658">star_id</text>
  </g>
  <g>
    <rect style="fill: #ffffff" x="490.48" y="130.134" width="110.7" height="18"/>
    <rect style="fill: none; fill-opacity:0; stroke-width: 2; stroke: #000000" x="490.48" y="130.134" width="110.7" height="18"/>
    <text font-size="11.2" style="fill: #000000;text-anchor:middle;font-family:sans-serif;font-style:normal;font-weight:700" x="545.83" y="144.134">Asteroid</text>
    <rect style="fill: #ffffff" x="490.48" y="148.134" width="110.7" height="36"/>
    <rect style="fill: none; fill-opacity:0; stroke-width: 2; stroke: #000000" x="490.48" y="148.134" width="110.7" height="36"/>
    <polygon style="fill: #000000" points="493.48,158.134 495.48,161.134 497.48,158.134 495.48,155.134 "/>
    <text font-size="12.8" style="fill: #000000;text-anchor:start;font-family:monospace;font-style:normal;font-weight:normal" x="499.48" y="164.134">Asteroid_id</text>
    <line style="fill: none; fill-opacity:0; stroke-width: 1; stroke: #000000" x1="499.48" y1="165.734" x2="594.18" y2="165.734"/>
    <ellipse style="fill: none; fill-opacity:0; stroke-width: 0.2; stroke: #000000" cx="495.48" cy="174.134" rx="2" ry="2"/>
    <text font-size="12.8" style="fill: #000000;text-anchor:start;font-family:monospace;font-style:normal;font-weight:normal" x="499.48" y="180.134">Ecentricity</text>
  </g>
  <g>
    <rect style="fill: #ffffff" x="16.7" y="328.272" width="126.1" height="18"/>
    <rect style="fill: none; fill-opacity:0; stroke-width: 2; stroke: #000000" x="16.7" y="328.272" width="126.1" height="18"/>
    <text font-size="11.2" style="fill: #000000;text-anchor:middle;font-family:sans-serif;font-style:normal;font-weight:700" x="79.75" y="342.272">Element</text>
    <rect style="fill: #ffffff" x="16.7" y="346.272" width="126.1" height="52"/>
    <rect style="fill: none; fill-opacity:0; stroke-width: 2; stroke: #000000" x="16.7" y="346.272" width="126.1" height="52"/>
    <polygon style="fill: #000000" points="19.7,356.272 21.7,359.272 23.7,356.272 21.7,353.272 "/>
    <text font-size="12.8" style="fill: #000000;text-anchor:start;font-family:monospace;font-style:normal;font-weight:normal" x="25.7" y="362.272">Star_id</text>
    <line style="fill: none; fill-opacity:0; stroke-width: 1; stroke: #000000" x1="25.7" y1="363.872" x2="135.8" y2="363.872"/>
    <polygon style="fill: #000000" points="19.7,372.272 21.7,375.272 23.7,372.272 21.7,369.272 "/>
    <text font-size="12.8" style="fill: #000000;text-anchor:start;font-family:monospace;font-style:normal;font-weight:normal" x="25.7" y="378.272">Atomic_number</text>
    <line style="fill: none; fill-opacity:0; stroke-width: 1; stroke: #000000" x1="25.7" y1="379.872" x2="135.8" y2="379.872"/>
    <ellipse style="fill: #000000" cx="21.7" cy="388.272" rx="2" ry="2"/>
    <text font-size="12.8" style="fill: #000000;text-anchor:start;font-family:monospace;font-style:normal;font-weight:normal" x="25.7" y="394.272">Atomic_mass</text>
  </g>
  <g>
    <rect style="fill: #ffffff" x="16.7" y="215.658" width="126.1" height="18"/>
    <rect style="fill: none; fill-opacity:0; stroke-width: 2; stroke: #000000" x="16.7" y="215.658" width="126.1" height="18"/>
    <text font-size="11.2" style="fill: #000000;text-anchor:middle;font-family:sans-serif;font-style:normal;font-weight:700" x="79.75" y="229.658">component</text>
    <rect style="fill: #ffffff" x="16.7" y="233.658" width="126.1" height="36"/>
    <rect style="fill: none; fill-opacity:0; stroke-width: 2; stroke: #000000" x="16.7" y="233.658" width="126.1" height="36"/>
    <polygon style="fill: #000000" points="19.7,243.658 21.7,246.658 23.7,243.658 21.7,240.658 "/>
    <text font-size="12.8" style="fill: #000000;text-anchor:start;font-family:monospace;font-style:normal;font-weight:normal" x="25.7" y="249.658">Star_id</text>
    <line style="fill: none; fill-opacity:0; stroke-width: 1; stroke: #000000" x1="25.7" y1="251.258" x2="135.8" y2="251.258"/>
    <polygon style="fill: #000000" points="19.7,259.658 21.7,262.658 23.7,259.658 21.7,256.658 "/>
    <text font-size="12.8" style="fill: #000000;text-anchor:start;font-family:monospace;font-style:normal;font-weight:normal" x="25.7" y="265.658">Atomic_number</text>
    <line style="fill: none; fill-opacity:0; stroke-width: 1; stroke: #000000" x1="25.7" y1="267.258" x2="135.8" y2="267.258"/>
  </g>
  <g>
    <polyline style="fill: none; fill-opacity:0; stroke-width: 2; stroke: #000000" points="464.582,84.4 464.582,107.267 545.83,107.267 545.83,130.134 "/>
    <line style="fill: none; fill-opacity:0; stroke-width: 2; stroke: #000000" x1="459.582" y1="89.4" x2="469.582" y2="89.4"/>
    <line style="fill: none; fill-opacity:0; stroke-width: 2; stroke: #000000" x1="459.582" y1="94.4" x2="469.582" y2="94.4"/>
    <line style="fill: none; fill-opacity:0; stroke-width: 2; stroke: #000000" x1="550.83" y1="125.134" x2="540.83" y2="125.134"/>
    <path style="fill: none; fill-opacity:0; stroke-width: 2; stroke: #000000" d="M 545.83 117.634 C 543.33,117.634 540.83,116.384 540.83,115.134 C 540.83,113.884 543.33,112.634 545.83,112.634 C 548.33,112.634 550.83,113.884 550.83,115.134 C 550.83,116.384 548.33,117.634 545.83,117.634"/>
  </g>
  <g>
    <polyline style="fill: none; fill-opacity:0; stroke-width: 2; stroke: #000000" points="405.382,84.4 405.382,105.78 235.612,105.78 235.612,127.161 "/>
    <line style="fill: none; fill-opacity:0; stroke-width: 2; stroke: #000000" x1="400.382" y1="89.4" x2="410.382" y2="89.4"/>
    <line style="fill: none; fill-opacity:0; stroke-width: 2; stroke: #000000" x1="400.382" y1="94.4" x2="410.382" y2="94.4"/>
    <line style="fill: none; fill-opacity:0; stroke-width: 2; stroke: #000000" x1="240.612" y1="122.161" x2="230.612" y2="122.161"/>
    <path style="fill: none; fill-opacity:0; stroke-width: 2; stroke: #000000" d="M 235.612 114.661 C 233.112,114.661 230.612,113.411 230.612,112.161 C 230.612,110.911 233.112,109.661 235.612,109.661 C 238.112,109.661 240.612,110.911 240.612,112.161 C 240.612,113.411 238.112,114.661 235.612,114.661"/>
  </g>
  <g>
    <polyline style="fill: none; fill-opacity:0; stroke-width: 2; stroke: #000000" points="434.982,84.4 434.982,144.529 395.552,144.529 395.552,204.658 "/>
    <line style="fill: none; fill-opacity:0; stroke-width: 2; stroke: #000000" x1="429.982" y1="89.4" x2="439.982" y2="89.4"/>
    <line style="fill: none; fill-opacity:0; stroke-width: 2; stroke: #000000" x1="429.982" y1="94.4" x2="439.982" y2="94.4"/>
    <line style="fill: none; fill-opacity:0; stroke-width: 2; stroke: #000000" x1="400.552" y1="199.658" x2="390.552" y2="199.658"/>
    <path style="fill: none; fill-opacity:0; stroke-width: 2; stroke: #000000" d="M 395.552 192.158 C 393.052,192.158 390.552,190.908 390.552,189.658 C 390.552,188.408 393.052,187.158 395.552,187.158 C 398.052,187.158 400.552,188.408 400.552,189.658 C 400.552,190.908 398.052,192.158 395.552,192.158"/>
  </g>
  <g>
    <polyline style="fill: none; fill-opacity:0; stroke-width: 2; stroke: #000000" points="287.112,136.161 333.616,136.161 333.616,171.161 287.112,171.161 "/>
    <line style="fill: none; fill-opacity:0; stroke-width: 2; stroke: #000000" x1="292.112" y1="141.161" x2="292.112" y2="131.161"/>
    <path style="fill: none; fill-opacity:0; stroke-width: 2; stroke: #000000" d="M 299.612 136.161 C 299.612,133.661 300.862,131.161 302.112,131.161 C 303.362,131.161 304.612,133.661 304.612,136.161 C 304.612,138.661 303.362,141.161 302.112,141.161 C 300.862,141.161 299.612,138.661 299.612,136.161"/>
    <line style="fill: none; fill-opacity:0; stroke-width: 2; stroke: #000000" x1="292.112" y1="176.161" x2="292.112" y2="166.161"/>
    <path style="fill: none; fill-opacity:0; stroke-width: 2; stroke: #000000" d="M 299.612 171.161 C 299.612,168.661 300.862,166.161 302.112,166.161 C 303.362,166.161 304.612,168.661 304.612,171.161 C 304.612,173.661 303.362,176.161 302.112,176.161 C 300.862,176.161 299.612,173.661 299.612,171.161"/>
  </g>
  <g>
    <polyline style="fill: none; fill-opacity:0; stroke-width: 2; stroke: #000000" points="184.112,155.161 163.456,155.161 163.456,243.658 142.8,243.658 "/>
    <line style="fill: none; fill-opacity:0; stroke-width: 2; stroke: #000000" x1="179.112" y1="150.161" x2="179.112" y2="160.161"/>
    <line style="fill: none; fill-opacity:0; stroke-width: 2; stroke: #000000" x1="174.112" y1="150.161" x2="174.112" y2="160.161"/>
    <line style="fill: none; fill-opacity:0; stroke-width: 2; stroke: #000000" x1="152.8" y1="243.658" x2="142.8" y2="238.658"/>
    <line style="fill: none; fill-opacity:0; stroke-width: 2; stroke: #000000" x1="152.8" y1="243.658" x2="142.8" y2="248.658"/>
    <line style="fill: none; fill-opacity:0; stroke-width: 2; stroke: #000000" x1="152.8" y1="238.658" x2="152.8" y2="248.658"/>
  </g>
  <g>
    <polyline style="fill: none; fill-opacity:0; stroke-width: 2; stroke: #000000" points="79.75,269.658 79.75,270.658 79.75,327.272 79.75,328.272 "/>
    <line style="fill: none; fill-opacity:0; stroke-width: 2; stroke: #000000" x1="79.75" y1="279.658" x2="84.75" y2="269.658"/>
    <line style="fill: none; fill-opacity:0; stroke-width: 2; stroke: #000000" x1="79.75" y1="279.658" x2="74.75" y2="269.658"/>
    <line style="fill: none; fill-opacity:0; stroke-width: 2; stroke: #000000" x1="84.75" y1="279.658" x2="74.75" y2="279.658"/>
    <line style="fill: none; fill-opacity:0; stroke-width: 2; stroke: #000000" x1="84.75" y1="323.272" x2="74.75" y2="323.272"/>
    <line style="fill: none; fill-opacity:0; stroke-width: 2; stroke: #000000" x1="84.75" y1="318.272" x2="74.75" y2="318.272"/>
  </g>
  <text font-size="12.8" style="fill: #000000;text-anchor:start;font-family:monospace;font-style:normal;font-weight:normal" x="307.994" y="97.1738">
    <tspan x="307.994" y="97.1738">is_a</tspan>
  </text>
  <text font-size="12.8" style="fill: #000000;text-anchor:start;font-family:monospace;font-style:normal;font-weight:normal" x="396.578" y="138.076">
    <tspan x="396.578" y="138.076">is_a</tspan>
  </text>
  <text font-size="12.8" style="fill: #000000;text-anchor:start;font-family:monospace;font-style:normal;font-weight:normal" x="505.916" y="98.8524">
    <tspan x="505.916" y="98.8524">is_a</tspan>
  </text>
  <text font-size="12.8" style="fill: #000000;text-anchor:start;font-family:monospace;font-style:normal;font-weight:normal" x="52.2982" y="179.755">
    <tspan x="52.2982" y="179.755">has_components</tspan>
  </text>
  <text font-size="12.8" style="fill: #000000;text-anchor:start;font-family:monospace;font-style:normal;font-weight:normal" x="83.5372" y="303.06">
    <tspan x="83.5372" y="303.06">which_is</tspan>
  </text>
  <g>
    <rect style="fill: #ffffff" x="617.094" y="278.61" width="118.4" height="18"/>
    <rect style="fill: none; fill-opacity:0; stroke-width: 2; stroke: #000000" x="617.094" y="278.61" width="118.4" height="18"/>
    <text font-size="11.2" style="fill: #000000;text-anchor:middle;font-family:sans-serif;font-style:normal;font-weight:700" x="676.294" y="292.61">Person</text>
    <rect style="fill: #ffffff" x="617.094" y="296.61" width="118.4" height="68"/>
    <rect style="fill: none; fill-opacity:0; stroke-width: 2; stroke: #000000" x="617.094" y="296.61" width="118.4" height="68"/>
    <polygon style="fill: #000000" points="620.094,306.61 622.094,309.61 624.094,306.61 622.094,303.61 "/>
    <text font-size="12.8" style="fill: #000000;text-anchor:start;font-family:monospace;font-style:normal;font-weight:normal" x="626.094" y="312.61">Firstname</text>
    <line style="fill: none; fill-opacity:0; stroke-width: 1; stroke: #000000" x1="626.094" y1="314.21" x2="728.494" y2="314.21"/>
    <polygon style="fill: #000000" points="620.094,322.61 622.094,325.61 624.094,322.61 622.094,319.61 "/>
    <text font-size="12.8" style="fill: #000000;text-anchor:start;font-family:monospace;font-style:normal;font-weight:normal" x="626.094" y="328.61">Surname</text>
    <line style="fill: none; fill-opacity:0; stroke-width: 1; stroke: #000000" x1="626.094" y1="330.21" x2="728.494" y2="330.21"/>
    <ellipse style="fill: none; fill-opacity:0; stroke-width: 0.2; stroke: #000000" cx="622.094" cy="338.61" rx="2" ry="2"/>
    <text font-size="12.8" style="fill: #000000;text-anchor:start;font-family:monospace;font-style:normal;font-weight:normal" x="626.094" y="344.61">Title</text>
    <ellipse style="fill: none; fill-opacity:0; stroke-width: 0.2; stroke: #000000" cx="622.094" cy="354.61" rx="2" ry="2"/>
    <text font-size="12.8" style="fill: #000000;text-anchor:start;font-family:monospace;font-style:normal;font-weight:normal" x="626.094" y="360.61">Organisation</text>
  </g>
  <g>
    <rect style="fill: #ffffff" x="686.406" y="130.134" width="110.7" height="18"/>
    <rect style="fill: none; fill-opacity:0; stroke-width: 2; stroke: #000000" x="686.406" y="130.134" width="110.7" height="18"/>
    <text font-size="11.2" style="fill: #000000;text-anchor:middle;font-family:sans-serif;font-style:normal;font-weight:700" x="741.756" y="144.134">Disc_by</text>
    <rect style="fill: #ffffff" x="686.406" y="148.134" width="110.7" height="52"/>
    <rect style="fill: none; fill-opacity:0; stroke-width: 2; stroke: #000000" x="686.406" y="148.134" width="110.7" height="52"/>
    <polygon style="fill: #000000" points="689.406,158.134 691.406,161.134 693.406,158.134 691.406,155.134 "/>
    <text font-size="12.8" style="fill: #000000;text-anchor:start;font-family:monospace;font-style:normal;font-weight:normal" x="695.406" y="164.134">Firstname</text>
    <line style="fill: none; fill-opacity:0; stroke-width: 1; stroke: #000000" x1="695.406" y1="165.734" x2="790.106" y2="165.734"/>
    <polygon style="fill: #000000" points="689.406,174.134 691.406,177.134 693.406,174.134 691.406,171.134 "/>
    <text font-size="12.8" style="fill: #000000;text-anchor:start;font-family:monospace;font-style:normal;font-weight:normal" x="695.406" y="180.134">Surname</text>
    <line style="fill: none; fill-opacity:0; stroke-width: 1; stroke: #000000" x1="695.406" y1="181.734" x2="790.106" y2="181.734"/>
    <polygon style="fill: #000000" points="689.406,190.134 691.406,193.134 693.406,190.134 691.406,187.134 "/>
    <text font-size="12.8" style="fill: #000000;text-anchor:start;font-family:monospace;font-style:normal;font-weight:normal" x="695.406" y="196.134">Asteroid_id</text>
    <line style="fill: none; fill-opacity:0; stroke-width: 1; stroke: #000000" x1="695.406" y1="197.734" x2="790.106" y2="197.734"/>
  </g>
  <g>
    <polyline style="fill: none; fill-opacity:0; stroke-width: 2; stroke: #000000" points="601.18,158.134 602.18,158.134 685.406,158.134 686.406,158.134 "/>
    <line style="fill: none; fill-opacity:0; stroke-width: 2; stroke: #000000" x1="606.18" y1="163.134" x2="606.18" y2="153.134"/>
    <line style="fill: none; fill-opacity:0; stroke-width: 2; stroke: #000000" x1="611.18" y1="163.134" x2="611.18" y2="153.134"/>
    <line style="fill: none; fill-opacity:0; stroke-width: 2; stroke: #000000" x1="676.406" y1="158.134" x2="686.406" y2="163.134"/>
    <line style="fill: none; fill-opacity:0; stroke-width: 2; stroke: #000000" x1="676.406" y1="158.134" x2="686.406" y2="153.134"/>
    <line style="fill: none; fill-opacity:0; stroke-width: 2; stroke: #000000" x1="676.406" y1="163.134" x2="676.406" y2="153.134"/>
  </g>
  <g>
    <polyline style="fill: none; fill-opacity:0; stroke-width: 2; stroke: #000000" points="676.294,278.61 676.294,239.372 741.756,239.372 741.756,200.134 "/>
    <line style="fill: none; fill-opacity:0; stroke-width: 2; stroke: #000000" x1="681.294" y1="273.61" x2="671.294" y2="273.61"/>
    <line style="fill: none; fill-opacity:0; stroke-width: 2; stroke: #000000" x1="681.294" y1="268.61" x2="671.294" y2="268.61"/>
    <line style="fill: none; fill-opacity:0; stroke-width: 2; stroke: #000000" x1="741.756" y1="210.134" x2="746.756" y2="200.134"/>
    <line style="fill: none; fill-opacity:0; stroke-width: 2; stroke: #000000" x1="741.756" y1="210.134" x2="736.756" y2="200.134"/>
    <line style="fill: none; fill-opacity:0; stroke-width: 2; stroke: #000000" x1="746.756" y1="210.134" x2="736.756" y2="210.134"/>
  </g>
  <text font-size="12.8" style="fill: #000000;text-anchor:start;font-family:monospace;font-style:normal;font-weight:normal" x="622.994" y="148.348">
    <tspan x="622.994" y="148.348">has_a</tspan>
  </text>
  <text font-size="12.8" style="fill: #000000;text-anchor:start;font-family:monospace;font-style:normal;font-weight:normal" x="682.96" y="234.562">
    <tspan x="682.96" y="234.562">who_is</tspan>
  </text>
</svg>
