<?xml version="1.0" encoding="UTF-8" standalone="no"?>
<!DOCTYPE svg PUBLIC "-//W3C//DTD SVG 1.0//EN" "http://www.w3.org/TR/2001/PR-SVG-20010719/DTD/svg10.dtd">
<svg width="54cm" height="36cm" viewBox="132 43 1076 705" xmlns="http://www.w3.org/2000/svg" xmlns:xlink="http://www.w3.org/1999/xlink">
  <g>
    <ellipse style="fill: #ffffff" cx="1171.54" cy="309.848" rx="6" ry="6"/>
    <ellipse style="fill: none; fill-opacity:0; stroke-width: 2; stroke: #000000" cx="1171.54" cy="309.848" rx="6" ry="6"/>
    <line style="fill: none; fill-opacity:0; stroke-width: 2; stroke: #000000" x1="1147.54" y1="321.848" x2="1195.54" y2="321.848"/>
    <line style="fill: none; fill-opacity:0; stroke-width: 2; stroke: #000000" x1="1171.54" y1="315.848" x2="1171.54" y2="345.848"/>
    <line style="fill: none; fill-opacity:0; stroke-width: 2; stroke: #000000" x1="1171.54" y1="345.848" x2="1147.54" y2="371.848"/>
    <line style="fill: none; fill-opacity:0; stroke-width: 2; stroke: #000000" x1="1171.54" y1="345.848" x2="1195.54" y2="371.848"/>
    <text font-size="12.8" style="fill: #000000;text-anchor:middle;font-family:sans-serif;font-style:normal;font-weight:normal" x="1171.54" y="395.748">
      <tspan x="1171.54" y="395.748">Travpedia</tspan>
    </text>
  </g>
  <text font-size="12.8" style="fill: #000000;text-anchor:start;font-family:sans-serif;font-style:normal;font-weight:normal" x="273.766" y="357.922">
    <tspan x="273.766" y="357.922"></tspan>
  </text>
  <g>
    <ellipse style="fill: #ffffff" cx="169.766" cy="180.922" rx="6" ry="6"/>
    <ellipse style="fill: none; fill-opacity:0; stroke-width: 2; stroke: #000000" cx="169.766" cy="180.922" rx="6" ry="6"/>
    <line style="fill: none; fill-opacity:0; stroke-width: 2; stroke: #000000" x1="145.766" y1="192.922" x2="193.766" y2="192.922"/>
    <line style="fill: none; fill-opacity:0; stroke-width: 2; stroke: #000000" x1="169.766" y1="186.922" x2="169.766" y2="216.922"/>
    <line style="fill: none; fill-opacity:0; stroke-width: 2; stroke: #000000" x1="169.766" y1="216.922" x2="145.766" y2="242.922"/>
    <line style="fill: none; fill-opacity:0; stroke-width: 2; stroke: #000000" x1="169.766" y1="216.922" x2="193.766" y2="242.922"/>
    <text font-size="12.8" style="fill: #000000;text-anchor:middle;font-family:sans-serif;font-style:normal;font-weight:normal" x="169.766" y="266.822">
      <tspan x="169.766" y="266.822">Online User</tspan>
    </text>
  </g>
  <g>
    <ellipse style="fill: #ffffff" cx="1163.54" cy="578.518" rx="6" ry="6"/>
    <ellipse style="fill: none; fill-opacity:0; stroke-width: 2; stroke: #000000" cx="1163.54" cy="578.518" rx="6" ry="6"/>
    <line style="fill: none; fill-opacity:0; stroke-width: 2; stroke: #000000" x1="1139.54" y1="590.518" x2="1187.54" y2="590.518"/>
    <line style="fill: none; fill-opacity:0; stroke-width: 2; stroke: #000000" x1="1163.54" y1="584.518" x2="1163.54" y2="614.518"/>
    <line style="fill: none; fill-opacity:0; stroke-width: 2; stroke: #000000" x1="1163.54" y1="614.518" x2="1139.54" y2="640.518"/>
    <line style="fill: none; fill-opacity:0; stroke-width: 2; stroke: #000000" x1="1163.54" y1="614.518" x2="1187.54" y2="640.518"/>
    <text font-size="12.8" style="fill: #000000;text-anchor:middle;font-family:sans-serif;font-style:normal;font-weight:normal" x="1163.54" y="664.418">
      <tspan x="1163.54" y="664.418">Third Party</tspan>
      <tspan x="1163.54" y="680.418">Consortium</tspan>
    </text>
  </g>
  <rect style="fill: none; fill-opacity:0; stroke-width: 2; stroke: #000000" x="255.766" y="44.6765" width="821" height="702"/>
  <g>
    <ellipse style="fill: #ffffff" cx="665.198" cy="221.241" rx="70.1" ry="23.3667"/>
    <ellipse style="fill: none; fill-opacity:0; stroke-width: 2; stroke: #000000" cx="665.198" cy="221.241" rx="70.1" ry="23.3667"/>
    <text font-size="12.8" style="fill: #000000;text-anchor:middle;font-family:sans-serif;font-style:normal;font-weight:normal" x="665.198" y="225.141">
      <tspan x="665.198" y="225.141">Make a search</tspan>
    </text>
  </g>
  <g>
    <line style="fill: none; fill-opacity:0; stroke-width: 2; stroke: #000000" x1="577.1" y1="220.473" x2="206.779" y2="217.245"/>
    <polygon style="fill: #000000" points="577.056,225.473 593.099,220.612 577.143,215.473 "/>
    <polygon style="fill: none; fill-opacity:0; stroke-width: 2; stroke: #000000" points="577.056,225.473 593.099,220.612 577.143,215.473 "/>
  </g>
  <g>
    <line style="fill: none; fill-opacity:0; stroke-width: 2; stroke: #000000" x1="1123.94" y1="334.133" x2="736.294" y2="238.737"/>
    <polygon style="fill: #000000" points="1122.74,338.988 1139.47,337.956 1125.13,329.277 "/>
    <polygon style="fill: none; fill-opacity:0; stroke-width: 2; stroke: #000000" points="1122.74,338.988 1139.47,337.956 1125.13,329.277 "/>
  </g>
  <g>
    <ellipse style="fill: #ffffff" cx="700.006" cy="543.258" rx="74.375" ry="24.7917"/>
    <ellipse style="fill: none; fill-opacity:0; stroke-width: 2; stroke: #000000" cx="700.006" cy="543.258" rx="74.375" ry="24.7917"/>
    <text font-size="12.8" style="fill: #000000;text-anchor:middle;font-family:sans-serif;font-style:normal;font-weight:normal" x="700.006" y="547.158">
      <tspan x="700.006" y="547.158">Make a booking</tspan>
    </text>
  </g>
  <g>
    <line style="fill: none; fill-opacity:0; stroke-width: 2; stroke: #000000" x1="1124.76" y1="365.432" x2="761.624" y2="517.461"/>
    <polygon style="fill: #000000" points="1126.69,370.044 1139.52,359.253 1122.83,360.82 "/>
    <polygon style="fill: none; fill-opacity:0; stroke-width: 2; stroke: #000000" points="1126.69,370.044 1139.52,359.253 1122.83,360.82 "/>
  </g>
  <g>
    <line style="fill: none; fill-opacity:0; stroke-width: 2; stroke: #000000" x1="1169.4" y1="417.849" x2="1165.18" y2="559.51"/>
    <polygon style="fill: #000000" points="1174.39,417.997 1169.87,401.856 1164.4,417.7 "/>
    <polygon style="fill: none; fill-opacity:0; stroke-width: 2; stroke: #000000" points="1174.39,417.997 1169.87,401.856 1164.4,417.7 "/>
  </g>
  <g>
    <line style="fill: none; fill-opacity:0; stroke-width: 2; stroke: #000000" x1="1165.68" y1="542.517" x2="1169.9" y2="400.856"/>
    <polygon style="fill: #000000" points="1160.69,542.368 1165.21,558.51 1170.68,542.666 "/>
    <polygon style="fill: none; fill-opacity:0; stroke-width: 2; stroke: #000000" points="1160.69,542.368 1165.21,558.51 1170.68,542.666 "/>
  </g>
  <g>
    <ellipse style="fill: #ffffff" cx="1181.58" cy="126.091" rx="6" ry="6"/>
    <ellipse style="fill: none; fill-opacity:0; stroke-width: 2; stroke: #000000" cx="1181.58" cy="126.091" rx="6" ry="6"/>
    <line style="fill: none; fill-opacity:0; stroke-width: 2; stroke: #000000" x1="1157.58" y1="138.091" x2="1205.58" y2="138.091"/>
    <line style="fill: none; fill-opacity:0; stroke-width: 2; stroke: #000000" x1="1181.58" y1="132.091" x2="1181.58" y2="162.091"/>
    <line style="fill: none; fill-opacity:0; stroke-width: 2; stroke: #000000" x1="1181.58" y1="162.091" x2="1157.58" y2="188.091"/>
    <line style="fill: none; fill-opacity:0; stroke-width: 2; stroke: #000000" x1="1181.58" y1="162.091" x2="1205.58" y2="188.091"/>
    <text font-size="12.8" style="fill: #000000;text-anchor:middle;font-family:sans-serif;font-style:normal;font-weight:normal" x="1181.58" y="211.991">
      <tspan x="1181.58" y="211.991">Servers</tspan>
    </text>
  </g>
  <g>
    <ellipse style="fill: #ffffff" cx="945.116" cy="89.5629" rx="66.05" ry="22.0167"/>
    <ellipse style="fill: none; fill-opacity:0; stroke-width: 2; stroke: #000000" cx="945.116" cy="89.5629" rx="66.05" ry="22.0167"/>
    <text font-size="12.8" style="fill: #000000;text-anchor:middle;font-family:sans-serif;font-style:normal;font-weight:normal" x="945.116" y="93.4629">
      <tspan x="945.116" y="93.4629">Make backup</tspan>
    </text>
  </g>
  <g>
    <line style="fill: none; fill-opacity:0; stroke-width: 2; stroke: #000000" x1="1028.41" y1="115.11" x2="1155.59" y2="154.118"/>
    <polygon style="fill: #000000" points="1029.88,110.33 1013.11,110.418 1026.94,119.89 "/>
    <polygon style="fill: none; fill-opacity:0; stroke-width: 2; stroke: #000000" points="1029.88,110.33 1013.11,110.418 1026.94,119.89 "/>
  </g>
  <g>
    <line style="fill: none; fill-opacity:0; stroke-width: 2; stroke: #000000" x1="1177.65" y1="234.022" x2="1174.54" y2="290.891"/>
    <polygon style="fill: #000000" points="1182.65,234.295 1178.53,218.046 1172.66,233.749 "/>
    <polygon style="fill: none; fill-opacity:0; stroke-width: 2; stroke: #000000" points="1182.65,234.295 1178.53,218.046 1172.66,233.749 "/>
  </g>
  <g>
    <ellipse style="fill: #ffffff" cx="614.234" cy="116.499" rx="50.375" ry="20"/>
    <ellipse style="fill: none; fill-opacity:0; stroke-width: 2; stroke: #000000" cx="614.234" cy="116.499" rx="50.375" ry="20"/>
    <text font-size="12.8" style="fill: #000000;text-anchor:middle;font-family:sans-serif;font-style:normal;font-weight:normal" x="614.234" y="120.399">
      <tspan x="614.234" y="120.399">Register</tspan>
    </text>
  </g>
  <g>
    <line style="fill: none; fill-opacity:0; stroke-width: 2; stroke: #000000" x1="546.298" y1="131.848" x2="207.02" y2="208.505"/>
    <polygon style="fill: #000000" points="547.4,136.725 561.905,128.322 545.196,126.971 "/>
    <polygon style="fill: none; fill-opacity:0; stroke-width: 2; stroke: #000000" points="547.4,136.725 561.905,128.322 545.196,126.971 "/>
  </g>
  <g>
    <line style="fill: none; fill-opacity:0; stroke-width: 2; stroke: #000000" x1="1124.72" y1="326.58" x2="665.274" y2="137.503"/>
    <polygon style="fill: #000000" points="1122.82,331.204 1139.52,332.669 1126.62,321.957 "/>
    <polygon style="fill: none; fill-opacity:0; stroke-width: 2; stroke: #000000" points="1122.82,331.204 1139.52,332.669 1126.62,321.957 "/>
  </g>
  <g>
    <ellipse style="fill: #ffffff" cx="408.88" cy="272.327" rx="86.525" ry="28.8417"/>
    <ellipse style="fill: none; fill-opacity:0; stroke-width: 2; stroke: #000000" cx="408.88" cy="272.327" rx="86.525" ry="28.8417"/>
    <text font-size="12.7998" style="fill: #000000;text-anchor:middle;font-family:sans-serif;font-style:normal;font-weight:normal" x="408.88" y="276.227">
      <tspan x="408.88" y="276.227">Filter search results</tspan>
    </text>
  </g>
  <text font-size="12.8" style="fill: #000000;text-anchor:start;font-family:monospace;font-style:normal;font-weight:normal" x="531.822" y="458.525">
    <tspan x="531.822" y="458.525">«includes»</tspan>
  </text>
  <g>
    <line style="fill: none; fill-opacity:0; stroke-width: 2; stroke-dasharray: 6; stroke: #000000" x1="500.326" y1="254.101" x2="573.499" y2="239.517"/>
    <polygon style="fill: #000000" points="574.477,244.421 589.191,236.39 572.522,234.614 "/>
    <polygon style="fill: none; fill-opacity:0; stroke-width: 2; stroke: #000000" points="574.477,244.421 589.191,236.39 572.522,234.614 "/>
  </g>
  <text font-size="12.8" style="fill: #000000;text-anchor:start;font-family:monospace;font-style:normal;font-weight:normal" x="472.033" y="239.797">
    <tspan x="472.033" y="239.797">«extends»</tspan>
  </text>
  <g>
    <line style="fill: none; fill-opacity:0; stroke-width: 2; stroke: #000000" x1="304.797" y1="248.21" x2="207.018" y2="225.554"/>
    <polygon style="fill: #000000" points="303.668,253.081 320.384,251.822 305.925,243.339 "/>
    <polygon style="fill: none; fill-opacity:0; stroke-width: 2; stroke: #000000" points="303.668,253.081 320.384,251.822 305.925,243.339 "/>
  </g>
  <g>
    <ellipse style="fill: #ffffff" cx="901.91" cy="332.623" rx="69.65" ry="23.2167"/>
    <ellipse style="fill: none; fill-opacity:0; stroke-width: 2; stroke: #000000" cx="901.91" cy="332.623" rx="69.65" ry="23.2167"/>
    <text font-size="12.7998" style="fill: #000000;text-anchor:middle;font-family:sans-serif;font-style:normal;font-weight:normal" x="901.91" y="336.523">
      <tspan x="901.91" y="336.523">Accomodation</tspan>
    </text>
  </g>
  <g>
    <ellipse style="fill: #ffffff" cx="855.423" cy="404.898" rx="38.05" ry="20"/>
    <ellipse style="fill: none; fill-opacity:0; stroke-width: 2; stroke: #000000" cx="855.423" cy="404.898" rx="38.05" ry="20"/>
    <text font-size="12.7998" style="fill: #000000;text-anchor:middle;font-family:sans-serif;font-style:normal;font-weight:normal" x="855.423" y="408.798">
      <tspan x="855.423" y="408.798">Travel</tspan>
    </text>
  </g>
  <g>
    <line style="fill: none; fill-opacity:0; stroke-width: 2; stroke-dasharray: 6; stroke: #000000" x1="846.827" y1="306.705" x2="735.995" y2="254.553"/>
    <polygon style="fill: #000000" points="738.123,250.029 721.517,247.741 733.866,259.078 "/>
    <polygon style="fill: none; fill-opacity:0; stroke-width: 2; stroke: #000000" points="738.123,250.029 721.517,247.741 733.866,259.078 "/>
  </g>
  <g>
    <line style="fill: none; fill-opacity:0; stroke-width: 2; stroke-dasharray: 6; stroke: #000000" x1="830.799" y1="381.124" x2="705.535" y2="260.185"/>
    <polygon style="fill: #000000" points="709.008,256.588 694.024,249.072 702.062,263.782 "/>
    <polygon style="fill: none; fill-opacity:0; stroke-width: 2; stroke: #000000" points="709.008,256.588 694.024,249.072 702.062,263.782 "/>
  </g>
  <g>
    <rect style="fill: #ffffff" x="774.18" y="280.179" width="69.3" height="14.9"/>
    <text font-size="12.8" style="fill: #000000;text-anchor:start;font-family:monospace;font-style:normal;font-weight:normal" x="774.18" y="292.079">
      <tspan x="774.18" y="292.079">«extends»</tspan>
    </text>
  </g>
  <g>
    <ellipse style="fill: #ffffff" cx="752.916" cy="444.408" rx="56.25" ry="20"/>
    <ellipse style="fill: none; fill-opacity:0; stroke-width: 2; stroke: #000000" cx="752.916" cy="444.408" rx="56.25" ry="20"/>
    <text font-size="12.7998" style="fill: #000000;text-anchor:middle;font-family:sans-serif;font-style:normal;font-weight:normal" x="752.916" y="448.308">
      <tspan x="752.916" y="448.308">Time/date</tspan>
    </text>
  </g>
  <g>
    <line style="fill: none; fill-opacity:0; stroke-width: 2; stroke-dasharray: 6; stroke: #000000" x1="743.202" y1="419.695" x2="682.458" y2="265.153"/>
    <polygon style="fill: #000000" points="687.112,263.324 676.605,250.262 677.805,266.982 "/>
    <polygon style="fill: none; fill-opacity:0; stroke-width: 2; stroke: #000000" points="687.112,263.324 676.605,250.262 677.805,266.982 "/>
  </g>
  <g>
    <ellipse style="fill: #ffffff" cx="648.991" cy="406.33" rx="32.5" ry="20"/>
    <ellipse style="fill: none; fill-opacity:0; stroke-width: 2; stroke: #000000" cx="648.991" cy="406.33" rx="32.5" ry="20"/>
    <text font-size="12.7998" style="fill: #000000;text-anchor:middle;font-family:sans-serif;font-style:normal;font-weight:normal" x="648.991" y="410.23">
      <tspan x="648.991" y="410.23">Price</tspan>
    </text>
  </g>
  <g>
    <line style="fill: none; fill-opacity:0; stroke-width: 2; stroke-dasharray: 6; stroke: #000000" x1="651.178" y1="381.355" x2="661.233" y2="266.528"/>
    <polygon style="fill: #000000" points="666.213,266.964 662.628,250.589 656.252,266.092 "/>
    <polygon style="fill: none; fill-opacity:0; stroke-width: 2; stroke: #000000" points="666.213,266.964 662.628,250.589 656.252,266.092 "/>
  </g>
  <g>
    <rect style="fill: #ffffff" x="631.307" y="340.183" width="69.3" height="14.9"/>
    <text font-size="12.8" style="fill: #000000;text-anchor:start;font-family:monospace;font-style:normal;font-weight:normal" x="631.307" y="352.083">
      <tspan x="631.307" y="352.083">«extends»</tspan>
    </text>
  </g>
  <g>
    <rect style="fill: #ffffff" x="753.64" y="337.386" width="69.3" height="14.9"/>
    <text font-size="12.8" style="fill: #000000;text-anchor:start;font-family:monospace;font-style:normal;font-weight:normal" x="753.64" y="349.286">
      <tspan x="753.64" y="349.286">«extends»</tspan>
    </text>
  </g>
  <g>
    <rect style="fill: #ffffff" x="702.675" y="378.657" width="69.3" height="14.9"/>
    <text font-size="12.8" style="fill: #000000;text-anchor:start;font-family:monospace;font-style:normal;font-weight:normal" x="702.675" y="390.557">
      <tspan x="702.675" y="390.557">«extends»</tspan>
    </text>
  </g>
  <g>
    <ellipse style="fill: #ffffff" cx="429.829" cy="358.29" rx="83.825" ry="27.9417"/>
    <ellipse style="fill: none; fill-opacity:0; stroke-width: 2; stroke: #000000" cx="429.829" cy="358.29" rx="83.825" ry="27.9417"/>
    <text font-size="12.7998" style="fill: #000000;text-anchor:middle;font-family:sans-serif;font-style:normal;font-weight:normal" x="429.829" y="362.19">
      <tspan x="429.829" y="362.19">Sort search results</tspan>
    </text>
  </g>
  <g>
    <line style="fill: none; fill-opacity:0; stroke-width: 2; stroke-dasharray: 6; stroke: #000000" x1="482.963" y1="327.352" x2="605.203" y2="256.174"/>
    <polygon style="fill: #000000" points="607.719,260.495 619.03,248.123 602.687,251.854 "/>
    <polygon style="fill: none; fill-opacity:0; stroke-width: 2; stroke: #000000" points="607.719,260.495 619.03,248.123 602.687,251.854 "/>
  </g>
  <text font-size="12.8" style="fill: #000000;text-anchor:start;font-family:monospace;font-style:normal;font-weight:normal" x="512.915" y="322.036">
    <tspan x="512.915" y="322.036">«extends»</tspan>
  </text>
  <g>
    <line style="fill: none; fill-opacity:0; stroke-width: 2; stroke: #000000" x1="361.655" y1="321.231" x2="207.004" y2="237.164"/>
    <polygon style="fill: #000000" points="359.267,325.624 375.713,328.873 364.043,316.838 "/>
    <polygon style="fill: none; fill-opacity:0; stroke-width: 2; stroke: #000000" points="359.267,325.624 375.713,328.873 364.043,316.838 "/>
  </g>
  <g>
    <ellipse style="fill: #ffffff" cx="731.198" cy="693.879" rx="77.375" ry="25.7917"/>
    <ellipse style="fill: none; fill-opacity:0; stroke-width: 2; stroke: #000000" cx="731.198" cy="693.879" rx="77.375" ry="25.7917"/>
    <text font-size="12.8" style="fill: #000000;text-anchor:middle;font-family:sans-serif;font-style:normal;font-weight:normal" x="731.198" y="697.779">
      <tspan x="731.198" y="697.779">Make a payment</tspan>
    </text>
  </g>
  <g>
    <line style="fill: none; fill-opacity:0; stroke-width: 2; stroke: #000000" x1="1109.96" y1="624.354" x2="809.577" y2="679.492"/>
    <polygon style="fill: #000000" points="1110.86,629.272 1125.69,621.465 1109.05,619.436 "/>
    <polygon style="fill: none; fill-opacity:0; stroke-width: 2; stroke: #000000" points="1110.86,629.272 1125.69,621.465 1109.05,619.436 "/>
  </g>
  <g>
    <polyline style="fill: none; fill-opacity:0; stroke-width: 2; stroke: #000000" points="174.72,271.904 210.573,669.826 635.84,689.474 "/>
    <polygon style="fill: #000000" points="635.609,694.468 651.823,690.212 636.07,684.479 "/>
    <polygon style="fill: none; fill-opacity:0; stroke-width: 2; stroke: #000000" points="635.609,694.468 651.823,690.212 636.07,684.479 "/>
  </g>
  <g>
    <polyline style="fill: none; fill-opacity:0; stroke-width: 2; stroke: #000000" points="206.972,252.726 421.655,459.321 608.357,515.621 "/>
    <polygon style="fill: #000000" points="606.914,520.408 623.676,520.241 609.801,510.834 "/>
    <polygon style="fill: none; fill-opacity:0; stroke-width: 2; stroke: #000000" points="606.914,520.408 623.676,520.241 609.801,510.834 "/>
  </g>
  <g>
    <ellipse style="fill: #ffffff" cx="415.583" cy="536.54" rx="66.725" ry="22.2417"/>
    <ellipse style="fill: none; fill-opacity:0; stroke-width: 2; stroke: #000000" cx="415.583" cy="536.54" rx="66.725" ry="22.2417"/>
    <text font-size="12.7998" style="fill: #000000;text-anchor:middle;font-family:sans-serif;font-style:normal;font-weight:normal" x="415.583" y="540.44">
      <tspan x="415.583" y="540.44">View booking</tspan>
    </text>
  </g>
  <g>
    <ellipse style="fill: #ffffff" cx="352.168" cy="619.806" rx="74.225" ry="24.7417"/>
    <ellipse style="fill: none; fill-opacity:0; stroke-width: 2; stroke: #000000" cx="352.168" cy="619.806" rx="74.225" ry="24.7417"/>
    <text font-size="12.7998" style="fill: #000000;text-anchor:middle;font-family:sans-serif;font-style:normal;font-weight:normal" x="352.168" y="623.706">
      <tspan x="352.168" y="623.706">Amend booking</tspan>
    </text>
  </g>
  <g>
    <line style="fill: none; fill-opacity:0; stroke-width: 2; stroke-dasharray: 6; stroke: #000000" x1="431.23" y1="602.407" x2="604.118" y2="564.359"/>
    <polygon style="fill: #000000" points="605.193,569.243 619.744,560.921 603.044,559.476 "/>
    <polygon style="fill: none; fill-opacity:0; stroke-width: 2; stroke: #000000" points="605.193,569.243 619.744,560.921 603.044,559.476 "/>
  </g>
  <g>
    <rect style="fill: #ffffff" x="477.722" y="592.3" width="69.3" height="14.9"/>
    <text font-size="12.8" style="fill: #000000;text-anchor:start;font-family:monospace;font-style:normal;font-weight:normal" x="477.722" y="604.2">
      <tspan x="477.722" y="604.2">«extends»</tspan>
    </text>
  </g>
  <g>
    <line style="fill: none; fill-opacity:0; stroke-width: 2; stroke-dasharray: 6; stroke: #000000" x1="487.302" y1="538.234" x2="603.653" y2="540.982"/>
    <polygon style="fill: #000000" points="603.535,545.981 619.648,541.36 603.771,535.984 "/>
    <polygon style="fill: none; fill-opacity:0; stroke-width: 2; stroke: #000000" points="603.535,545.981 619.648,541.36 603.771,535.984 "/>
  </g>
  <g>
    <rect style="fill: #ffffff" x="509.434" y="521.044" width="69.3" height="14.9"/>
    <text font-size="12.8" style="fill: #000000;text-anchor:start;font-family:monospace;font-style:normal;font-weight:normal" x="509.434" y="532.944">
      <tspan x="509.434" y="532.944">«extends»</tspan>
    </text>
  </g>
  <g>
    <line style="fill: none; fill-opacity:0; stroke-width: 2; stroke-dasharray: 6; stroke: #000000" x1="724.839" y1="663.173" x2="709.605" y2="589.608"/>
    <polygon style="fill: #000000" points="714.501,588.594 706.36,573.941 704.709,590.622 "/>
    <polygon style="fill: none; fill-opacity:0; stroke-width: 2; stroke: #000000" points="714.501,588.594 706.36,573.941 704.709,590.622 "/>
  </g>
  <text font-size="12.8" style="fill: #000000;text-anchor:start;font-family:monospace;font-style:normal;font-weight:normal" x="635.148" y="649.973">
    <tspan x="635.148" y="649.973">«includes»</tspan>
  </text>
  <g>
    <line style="fill: none; fill-opacity:0; stroke-width: 2; stroke: #000000" x1="333.506" y1="578.585" x2="194.665" y2="271.918"/>
    <polygon style="fill: #000000" points="328.951,580.648 340.105,593.161 338.061,576.523 "/>
    <polygon style="fill: none; fill-opacity:0; stroke-width: 2; stroke: #000000" points="328.951,580.648 340.105,593.161 338.061,576.523 "/>
  </g>
  <g>
    <line style="fill: none; fill-opacity:0; stroke-width: 2; stroke: #000000" x1="387.395" y1="499.89" x2="207.005" y2="265.341"/>
    <polygon style="fill: #000000" points="383.431,502.938 397.149,512.572 391.358,496.841 "/>
    <polygon style="fill: none; fill-opacity:0; stroke-width: 2; stroke: #000000" points="383.431,502.938 397.149,512.572 391.358,496.841 "/>
  </g>
  <g>
    <polyline style="fill: none; fill-opacity:0; stroke-width: 2; stroke-dasharray: 6; stroke: #000000" points="651.813,245.596 564.281,404.878 664.855,507.419 "/>
    <polygon style="fill: #000000" points="672.208,514.916 659.549,507.722 664.855,507.419 665.26,502.12 "/>
    <polygon style="fill: none; fill-opacity:0; stroke-width: 2; stroke: #000000" points="672.208,514.916 659.549,507.722 664.855,507.419 665.26,502.12 "/>
  </g>
  <g>
    <ellipse style="fill: #ffffff" cx="939.831" cy="143.083" rx="80.25" ry="26.75"/>
    <ellipse style="fill: none; fill-opacity:0; stroke-width: 2; stroke: #000000" cx="939.831" cy="143.083" rx="80.25" ry="26.75"/>
    <text font-size="12.8" style="fill: #000000;text-anchor:middle;font-family:sans-serif;font-style:normal;font-weight:normal" x="939.831" y="146.983">
      <tspan x="939.831" y="146.983">Store user details</tspan>
    </text>
  </g>
  <g>
    <line style="fill: none; fill-opacity:0; stroke-width: 2; stroke: #000000" x1="1038.03" y1="150.804" x2="1155.58" y2="160.046"/>
    <polygon style="fill: #000000" points="1038.42,145.819 1022.08,149.549 1037.64,155.788 "/>
    <polygon style="fill: none; fill-opacity:0; stroke-width: 2; stroke: #000000" points="1038.42,145.819 1022.08,149.549 1037.64,155.788 "/>
  </g>
  <g>
    <line style="fill: none; fill-opacity:0; stroke-width: 2; stroke-dasharray: 6; stroke: #000000" x1="854.854" y1="167.266" x2="756.485" y2="195.261"/>
    <polygon style="fill: #000000" points="755.116,190.452 741.096,199.641 757.853,200.07 "/>
    <polygon style="fill: none; fill-opacity:0; stroke-width: 2; stroke: #000000" points="755.116,190.452 741.096,199.641 757.853,200.07 "/>
  </g>
  <text font-size="12.8" style="fill: #000000;text-anchor:start;font-family:monospace;font-style:normal;font-weight:normal" x="766.564" y="164.039">
    <tspan x="766.564" y="164.039">«includes»</tspan>
  </text>
</svg>
