<?xml version="1.0" encoding="UTF-8" standalone="no"?>
<!DOCTYPE svg PUBLIC "-//W3C//DTD SVG 1.0//EN" "http://www.w3.org/TR/2001/PR-SVG-20010719/DTD/svg10.dtd">
<svg width="61cm" height="60cm" viewBox="132 -324 1202 1193" xmlns="http://www.w3.org/2000/svg" xmlns:xlink="http://www.w3.org/1999/xlink">
  <g>
    <path style="fill: #be7467" d="M 523.894 -280.545 C 370.687,-242.892 599.198,-85.7906 762.792,-87.0889 C 926.385,-88.3873 1170.48,-272.754 1026.36,-292.23 C 882.241,-311.705 677.1,-318.197 523.894,-280.545z"/>
    <path style="fill: none; fill-opacity:0; stroke-width: 2; stroke: #000000" d="M 523.894 -280.545 C 370.687,-242.892 599.198,-85.7906 762.792,-87.0889 C 926.385,-88.3873 1170.48,-272.754 1026.36,-292.23 C 882.241,-311.705 677.1,-318.197 523.894,-280.545"/>
  </g>
  <g>
    <path style="fill: #8dc2bc" d="M 293.035 482.738 C 301.947,327.879 742.091,427.852 845.96,513.544 C 949.828,599.236 1042.01,717.387 981.165,768.377 C 847.832,880.112 681.068,857.609 508.386,851.118 C 335.704,844.626 280.216,705.475 293.035,482.738z"/>
    <path style="fill: none; fill-opacity:0; stroke-width: 2; stroke: #000000" d="M 293.035 482.738 C 301.947,327.879 742.091,427.852 845.96,513.544 C 949.828,599.236 1042.01,717.387 981.165,768.377 C 847.832,880.112 681.068,857.609 508.386,851.118 C 335.704,844.626 280.216,705.475 293.035,482.738"/>
  </g>
  <g>
    <path style="fill: #edd6b4" d="M 287.592 -44.243 C 301.874,-157.2 627.762,-97.4758 718.648,-67.6135 C 809.533,-37.7512 1069.28,151.302 925.336,264.613 C 735.99,413.667 588.884,375.918 442.17,333.072 C 295.455,290.226 266.105,125.702 287.592,-44.243z"/>
    <path style="fill: none; fill-opacity:0; stroke-width: 2; stroke: #000000" d="M 287.592 -44.243 C 301.874,-157.2 627.762,-97.4758 718.648,-67.6135 C 809.533,-37.7512 1069.28,151.302 925.336,264.613 C 735.99,413.667 588.884,375.918 442.17,333.072 C 295.455,290.226 266.105,125.702 287.592,-44.243"/>
  </g>
  <rect style="fill: none; fill-opacity:0; stroke-width: 4; stroke: #000000" x="255.766" y="-321.606" width="821" height="1188.02"/>
  <g>
    <ellipse style="fill: #ffffff" cx="1171.54" cy="309.848" rx="6" ry="6"/>
    <ellipse style="fill: none; fill-opacity:0; stroke-width: 2; stroke: #000000" cx="1171.54" cy="309.848" rx="6" ry="6"/>
    <line style="fill: none; fill-opacity:0; stroke-width: 2; stroke: #000000" x1="1147.54" y1="321.848" x2="1195.54" y2="321.848"/>
    <line style="fill: none; fill-opacity:0; stroke-width: 2; stroke: #000000" x1="1171.54" y1="315.848" x2="1171.54" y2="345.848"/>
    <line style="fill: none; fill-opacity:0; stroke-width: 2; stroke: #000000" x1="1171.54" y1="345.848" x2="1147.54" y2="371.848"/>
    <line style="fill: none; fill-opacity:0; stroke-width: 2; stroke: #000000" x1="1171.54" y1="345.848" x2="1195.54" y2="371.848"/>
    <text font-size="12.8" style="fill: #000000;text-anchor:middle;font-family:sans-serif;font-style:normal;font-weight:normal" x="1171.54" y="395.748">
      <tspan x="1171.54" y="395.748">System</tspan>
    </text>
  </g>
  <text font-size="12.8" style="fill: #000000;text-anchor:start;font-family:sans-serif;font-style:normal;font-weight:normal" x="273.766" y="357.922">
    <tspan x="273.766" y="357.922"></tspan>
  </text>
  <g>
    <ellipse style="fill: #ffffff" cx="169.766" cy="180.922" rx="6" ry="6"/>
    <ellipse style="fill: none; fill-opacity:0; stroke-width: 2; stroke: #000000" cx="169.766" cy="180.922" rx="6" ry="6"/>
    <line style="fill: none; fill-opacity:0; stroke-width: 2; stroke: #000000" x1="145.766" y1="192.922" x2="193.766" y2="192.922"/>
    <line style="fill: none; fill-opacity:0; stroke-width: 2; stroke: #000000" x1="169.766" y1="186.922" x2="169.766" y2="216.922"/>
    <line style="fill: none; fill-opacity:0; stroke-width: 2; stroke: #000000" x1="169.766" y1="216.922" x2="145.766" y2="242.922"/>
    <line style="fill: none; fill-opacity:0; stroke-width: 2; stroke: #000000" x1="169.766" y1="216.922" x2="193.766" y2="242.922"/>
    <text font-size="12.8" style="fill: #000000;text-anchor:middle;font-family:sans-serif;font-style:normal;font-weight:normal" x="169.766" y="266.822">
      <tspan x="169.766" y="266.822">Online User</tspan>
    </text>
  </g>
  <g>
    <ellipse style="fill: #ffffff" cx="1163.54" cy="578.518" rx="6" ry="6"/>
    <ellipse style="fill: none; fill-opacity:0; stroke-width: 2; stroke: #000000" cx="1163.54" cy="578.518" rx="6" ry="6"/>
    <line style="fill: none; fill-opacity:0; stroke-width: 2; stroke: #000000" x1="1139.54" y1="590.518" x2="1187.54" y2="590.518"/>
    <line style="fill: none; fill-opacity:0; stroke-width: 2; stroke: #000000" x1="1163.54" y1="584.518" x2="1163.54" y2="614.518"/>
    <line style="fill: none; fill-opacity:0; stroke-width: 2; stroke: #000000" x1="1163.54" y1="614.518" x2="1139.54" y2="640.518"/>
    <line style="fill: none; fill-opacity:0; stroke-width: 2; stroke: #000000" x1="1163.54" y1="614.518" x2="1187.54" y2="640.518"/>
    <text font-size="12.8" style="fill: #000000;text-anchor:middle;font-family:sans-serif;font-style:normal;font-weight:normal" x="1163.54" y="664.418">
      <tspan x="1163.54" y="664.418">Third Party</tspan>
      <tspan x="1163.54" y="680.418">Consortium</tspan>
    </text>
  </g>
  <g>
    <ellipse style="fill: #ffffff" cx="658.949" cy="88.2357" rx="100.475" ry="33.4917"/>
    <ellipse style="fill: none; fill-opacity:0; stroke-width: 2; stroke: #000000" cx="658.949" cy="88.2357" rx="100.475" ry="33.4917"/>
    <text font-size="12.8" style="fill: #000000;text-anchor:middle;font-family:sans-serif;font-style:normal;font-weight:normal" x="658.949" y="92.1357">
      <tspan x="658.949" y="92.1357">        Make a search       </tspan>
    </text>
  </g>
  <g>
    <line style="fill: none; fill-opacity:0; stroke-width: 2; stroke: #000000" x1="541.038" y1="119.254" x2="206.551" y2="207.246"/>
    <polygon style="fill: #000000" points="542.31,124.089 556.512,115.183 539.766,114.418 "/>
    <polygon style="fill: none; fill-opacity:0; stroke-width: 2; stroke: #000000" points="542.31,124.089 556.512,115.183 539.766,114.418 "/>
  </g>
  <g>
    <line style="fill: none; fill-opacity:0; stroke-width: 2; stroke: #000000" x1="1130.34" y1="325.144" x2="727.559" y2="122.717"/>
    <polygon style="fill: #000000" points="1128.1,329.612 1144.64,332.329 1132.59,320.677 "/>
    <polygon style="fill: none; fill-opacity:0; stroke-width: 2; stroke: #000000" points="1128.1,329.612 1144.64,332.329 1132.59,320.677 "/>
  </g>
  <g>
    <ellipse style="fill: #ffffff" cx="696.112" cy="488.727" rx="74.375" ry="24.7917"/>
    <ellipse style="fill: none; fill-opacity:0; stroke-width: 2; stroke: #000000" cx="696.112" cy="488.727" rx="74.375" ry="24.7917"/>
    <text font-size="12.8" style="fill: #000000;text-anchor:middle;font-family:sans-serif;font-style:normal;font-weight:normal" x="696.112" y="492.627">
      <tspan x="696.112" y="492.627">Make a booking</tspan>
    </text>
  </g>
  <g>
    <line style="fill: none; fill-opacity:0; stroke-width: 2; stroke: #000000" x1="1129.25" y1="358.557" x2="771.471" y2="466.079"/>
    <polygon style="fill: #000000" points="1130.69,363.345 1144.58,353.952 1127.81,353.768 "/>
    <polygon style="fill: none; fill-opacity:0; stroke-width: 2; stroke: #000000" points="1130.69,363.345 1144.58,353.952 1127.81,353.768 "/>
  </g>
  <g>
    <line style="fill: none; fill-opacity:0; stroke-width: 2; stroke: #000000" x1="1169.4" y1="417.849" x2="1165.18" y2="559.51"/>
    <polygon style="fill: #000000" points="1174.39,417.997 1169.87,401.856 1164.4,417.7 "/>
    <polygon style="fill: none; fill-opacity:0; stroke-width: 2; stroke: #000000" points="1174.39,417.997 1169.87,401.856 1164.4,417.7 "/>
  </g>
  <g>
    <line style="fill: none; fill-opacity:0; stroke-width: 2; stroke: #000000" x1="1165.68" y1="542.517" x2="1169.9" y2="400.856"/>
    <polygon style="fill: #000000" points="1160.69,542.369 1165.21,558.51 1170.68,542.666 "/>
    <polygon style="fill: none; fill-opacity:0; stroke-width: 2; stroke: #000000" points="1160.69,542.369 1165.21,558.51 1170.68,542.666 "/>
  </g>
  <g>
    <ellipse style="fill: #ffffff" cx="1171.2" cy="111.809" rx="6" ry="6"/>
    <ellipse style="fill: none; fill-opacity:0; stroke-width: 2; stroke: #000000" cx="1171.2" cy="111.809" rx="6" ry="6"/>
    <line style="fill: none; fill-opacity:0; stroke-width: 2; stroke: #000000" x1="1147.2" y1="123.809" x2="1195.2" y2="123.809"/>
    <line style="fill: none; fill-opacity:0; stroke-width: 2; stroke: #000000" x1="1171.2" y1="117.809" x2="1171.2" y2="147.809"/>
    <line style="fill: none; fill-opacity:0; stroke-width: 2; stroke: #000000" x1="1171.2" y1="147.809" x2="1147.2" y2="173.809"/>
    <line style="fill: none; fill-opacity:0; stroke-width: 2; stroke: #000000" x1="1171.2" y1="147.809" x2="1195.2" y2="173.809"/>
    <text font-size="12.8" style="fill: #000000;text-anchor:middle;font-family:sans-serif;font-style:normal;font-weight:normal" x="1171.2" y="197.709">
      <tspan x="1171.2" y="197.709">Database</tspan>
      <tspan x="1171.2" y="213.709">Servers</tspan>
    </text>
  </g>
  <g>
    <line style="fill: none; fill-opacity:0; stroke-width: 2; stroke: #000000" x1="1171.35" y1="233.713" x2="1171.44" y2="290.845"/>
    <polygon style="fill: #000000" points="1176.35,233.704 1171.32,217.713 1166.35,233.721 "/>
    <polygon style="fill: none; fill-opacity:0; stroke-width: 2; stroke: #000000" points="1176.35,233.704 1171.32,217.713 1166.35,233.721 "/>
  </g>
  <g>
    <ellipse style="fill: #ffffff" cx="855.644" cy="-188.547" rx="50.375" ry="20"/>
    <ellipse style="fill: none; fill-opacity:0; stroke-width: 2; stroke: #000000" cx="855.644" cy="-188.547" rx="50.375" ry="20"/>
    <text font-size="12.8" style="fill: #000000;text-anchor:middle;font-family:sans-serif;font-style:normal;font-weight:normal" x="855.644" y="-184.647">
      <tspan x="855.644" y="-184.647">Register</tspan>
    </text>
  </g>
  <g>
    <line style="fill: none; fill-opacity:0; stroke-width: 2; stroke: #000000" x1="1136.89" y1="287.23" x2="868.022" y2="-167.607"/>
    <polygon style="fill: #000000" points="1132.58,289.774 1145.03,301.003 1141.19,284.685 "/>
    <polygon style="fill: none; fill-opacity:0; stroke-width: 2; stroke: #000000" points="1132.58,289.774 1145.03,301.003 1141.19,284.685 "/>
  </g>
  <g>
    <ellipse style="fill: #ffffff" cx="438.714" cy="249.238" rx="86.525" ry="28.8417"/>
    <ellipse style="fill: none; fill-opacity:0; stroke-width: 2; stroke: #000000" cx="438.714" cy="249.238" rx="86.525" ry="28.8417"/>
    <text font-size="12.8" style="fill: #000000;text-anchor:middle;font-family:sans-serif;font-style:normal;font-weight:normal" x="438.714" y="253.138">
      <tspan x="438.714" y="253.138">Filter search results</tspan>
    </text>
  </g>
  <g>
    <rect style="fill: #edd6b4" x="540.911" y="284.331" width="77" height="14.9"/>
    <text font-size="12.8" style="fill: #000000;text-anchor:start;font-family:monospace;font-style:normal;font-weight:normal" x="540.911" y="296.231">
      <tspan x="540.911" y="296.231">«includes»</tspan>
    </text>
  </g>
  <g>
    <line style="fill: none; fill-opacity:0; stroke-width: 2; stroke-dasharray: 6; stroke: #000000" x1="482.767" y1="217.034" x2="594.828" y2="135.111"/>
    <polygon style="fill: #000000" points="597.779,139.148 607.744,125.669 591.877,131.075 "/>
    <polygon style="fill: none; fill-opacity:0; stroke-width: 2; stroke: #000000" points="597.779,139.148 607.744,125.669 591.877,131.075 "/>
  </g>
  <text font-size="12.8" style="fill: #000000;text-anchor:start;font-family:monospace;font-style:normal;font-weight:normal" x="473.376" y="71.2695">
    <tspan x="473.376" y="71.2695">«includes»</tspan>
  </text>
  <g>
    <line style="fill: none; fill-opacity:0; stroke-width: 2; stroke: #000000" x1="334.342" y1="236.697" x2="207.013" y2="221.398"/>
    <polygon style="fill: #000000" points="333.746,241.662 350.228,238.606 334.939,231.733 "/>
    <polygon style="fill: none; fill-opacity:0; stroke-width: 2; stroke: #000000" points="333.746,241.662 350.228,238.606 334.939,231.733 "/>
  </g>
  <g>
    <ellipse style="fill: #ffffff" cx="678.253" cy="-39.0534" rx="69.65" ry="23.2167"/>
    <ellipse style="fill: none; fill-opacity:0; stroke-width: 2; stroke-dasharray: 6; stroke: #000000" cx="678.253" cy="-39.0534" rx="69.65" ry="23.2167"/>
    <text font-size="12.8" style="fill: #000000;text-anchor:middle;font-family:sans-serif;font-style:normal;font-weight:normal" x="678.253" y="-35.1534">
      <tspan x="678.253" y="-35.1534">Accomodation</tspan>
    </text>
  </g>
  <g>
    <ellipse style="fill: #ffffff" cx="806.373" cy="301.655" rx="38.05" ry="20"/>
    <ellipse style="fill: none; fill-opacity:0; stroke-width: 2; stroke-dasharray: 6; stroke: #000000" cx="806.373" cy="301.655" rx="38.05" ry="20"/>
    <text font-size="12.8" style="fill: #000000;text-anchor:middle;font-family:sans-serif;font-style:normal;font-weight:normal" x="806.373" y="305.555">
      <tspan x="806.373" y="305.555">Travel</tspan>
    </text>
  </g>
  <g>
    <line style="fill: none; fill-opacity:0; stroke-width: 2; stroke-dasharray: 6; stroke: #000000" x1="673.981" y1="-10.8823" x2="667.324" y2="33.0093"/>
    <polygon style="fill: #000000" points="662.381,32.2596 664.925,48.8284 672.268,33.759 "/>
    <polygon style="fill: none; fill-opacity:0; stroke-width: 2; stroke: #000000" points="662.381,32.2596 664.925,48.8284 672.268,33.759 "/>
  </g>
  <g>
    <line style="fill: none; fill-opacity:0; stroke-width: 2; stroke-dasharray: 6; stroke: #000000" x1="789.591" y1="277.36" x2="694.675" y2="139.955"/>
    <polygon style="fill: #000000" points="698.789,137.113 685.582,126.791 690.561,142.797 "/>
    <polygon style="fill: none; fill-opacity:0; stroke-width: 2; stroke: #000000" points="698.789,137.113 685.582,126.791 690.561,142.797 "/>
  </g>
  <g>
    <rect style="fill: #edd6b4" x="628.149" y="4.17277" width="69.3" height="14.9"/>
    <text font-size="12.8" style="fill: #000000;text-anchor:start;font-family:monospace;font-style:normal;font-weight:normal" x="628.149" y="16.0728">
      <tspan x="628.149" y="16.0728">«extends»</tspan>
    </text>
  </g>
  <g>
    <ellipse style="fill: #ffffff" cx="691.491" cy="325.011" rx="70.325" ry="23.4417"/>
    <ellipse style="fill: none; fill-opacity:0; stroke-width: 2; stroke-dasharray: 6; stroke: #000000" cx="691.491" cy="325.011" rx="70.325" ry="23.4417"/>
    <text font-size="12.8" style="fill: #000000;text-anchor:middle;font-family:sans-serif;font-style:normal;font-weight:normal" x="691.491" y="328.911">
      <tspan x="691.491" y="328.911">Start/end date</tspan>
    </text>
  </g>
  <g>
    <line style="fill: none; fill-opacity:0; stroke-width: 2; stroke-dasharray: 6; stroke: #000000" x1="687.589" y1="296.625" x2="666.547" y2="143.522"/>
    <polygon style="fill: #000000" points="671.501,142.841 664.369,127.671 661.594,144.202 "/>
    <polygon style="fill: none; fill-opacity:0; stroke-width: 2; stroke: #000000" points="671.501,142.841 664.369,127.671 661.594,144.202 "/>
  </g>
  <g>
    <ellipse style="fill: #ffffff" cx="381.516" cy="-62.7517" rx="60.275" ry="20.0917"/>
    <ellipse style="fill: none; fill-opacity:0; stroke-width: 2; stroke-dasharray: 6; stroke: #000000" cx="381.516" cy="-62.7517" rx="60.275" ry="20.0917"/>
    <text font-size="12.8" style="fill: #000000;text-anchor:middle;font-family:sans-serif;font-style:normal;font-weight:normal" x="381.516" y="-58.8517">
      <tspan x="381.516" y="-58.8517">Price range</tspan>
    </text>
  </g>
  <g>
    <line style="fill: none; fill-opacity:0; stroke-width: 2; stroke-dasharray: 6; stroke: #000000" x1="379.668" y1="-37.6788" x2="375.224" y2="22.6152"/>
    <polygon style="fill: #000000" points="370.237,22.2476 374.047,38.5719 380.21,22.9828 "/>
    <polygon style="fill: none; fill-opacity:0; stroke-width: 2; stroke: #000000" points="370.237,22.2476 374.047,38.5719 380.21,22.9828 "/>
  </g>
  <g>
    <rect style="fill: #edd6b4" x="337.683" y="-22.8304" width="69.3" height="14.9"/>
    <text font-size="12.8" style="fill: #000000;text-anchor:start;font-family:monospace;font-style:normal;font-weight:normal" x="337.683" y="-10.9304">
      <tspan x="337.683" y="-10.9304">«extends»</tspan>
    </text>
  </g>
  <g>
    <rect style="fill: #edd6b4" x="705.089" y="222.59" width="69.3" height="14.9"/>
    <text font-size="12.8" style="fill: #000000;text-anchor:start;font-family:monospace;font-style:normal;font-weight:normal" x="705.089" y="234.49">
      <tspan x="705.089" y="234.49">«extends»</tspan>
    </text>
  </g>
  <g>
    <rect style="fill: #edd6b4" x="651.079" y="246.547" width="69.3" height="14.9"/>
    <text font-size="12.8" style="fill: #000000;text-anchor:start;font-family:monospace;font-style:normal;font-weight:normal" x="651.079" y="258.447">
      <tspan x="651.079" y="258.447">«extends»</tspan>
    </text>
  </g>
  <g>
    <ellipse style="fill: #ffffff" cx="371.546" cy="72.501" rx="83.825" ry="27.9417"/>
    <ellipse style="fill: none; fill-opacity:0; stroke-width: 2; stroke: #000000" cx="371.546" cy="72.501" rx="83.825" ry="27.9417"/>
    <text font-size="12.8" style="fill: #000000;text-anchor:middle;font-family:sans-serif;font-style:normal;font-weight:normal" x="371.546" y="76.401">
      <tspan x="371.546" y="76.401">Sort search results</tspan>
    </text>
  </g>
  <g>
    <line style="fill: none; fill-opacity:0; stroke-width: 2; stroke-dasharray: 6; stroke: #000000" x1="460.337" y1="77.3621" x2="536.511" y2="81.5324"/>
    <polygon style="fill: #000000" points="536.237,86.525 552.487,82.4071 536.784,76.5399 "/>
    <polygon style="fill: none; fill-opacity:0; stroke-width: 2; stroke: #000000" points="536.237,86.525 552.487,82.4071 536.784,76.5399 "/>
  </g>
  <g>
    <rect style="fill: #edd6b4" x="455.953" y="193.364" width="77" height="14.9"/>
    <text font-size="12.8" style="fill: #000000;text-anchor:start;font-family:monospace;font-style:normal;font-weight:normal" x="455.953" y="205.264">
      <tspan x="455.953" y="205.264">«includes»</tspan>
    </text>
  </g>
  <g>
    <line style="fill: none; fill-opacity:0; stroke-width: 2; stroke: #000000" x1="317.302" y1="111.325" x2="207.021" y2="190.258"/>
    <polygon style="fill: #000000" points="320.212,115.391 330.313,102.013 314.392,107.26 "/>
    <polygon style="fill: none; fill-opacity:0; stroke-width: 2; stroke: #000000" points="320.212,115.391 330.313,102.013 314.392,107.26 "/>
  </g>
  <g>
    <ellipse style="fill: #ffffff" cx="487.199" cy="701.124" rx="77.375" ry="25.7917"/>
    <ellipse style="fill: none; fill-opacity:0; stroke-width: 2; stroke: #000000" cx="487.199" cy="701.124" rx="77.375" ry="25.7917"/>
    <text font-size="12.8" style="fill: #000000;text-anchor:middle;font-family:sans-serif;font-style:normal;font-weight:normal" x="487.199" y="705.024">
      <tspan x="487.199" y="705.024">Make a payment</tspan>
    </text>
  </g>
  <g>
    <line style="fill: none; fill-opacity:0; stroke-width: 2; stroke: #000000" x1="1111.35" y1="639.503" x2="942.648" y2="720.264"/>
    <polygon style="fill: #000000" points="1113.51,644.013 1125.78,632.594 1109.19,634.993 "/>
    <polygon style="fill: none; fill-opacity:0; stroke-width: 2; stroke: #000000" points="1113.51,644.013 1125.78,632.594 1109.19,634.993 "/>
  </g>
  <g>
    <polyline style="fill: none; fill-opacity:0; stroke-width: 2; stroke: #000000" points="192.042,271.928 365.743,700.862 391.82,700.918 "/>
    <polygon style="fill: #000000" points="391.81,705.918 407.82,700.953 391.831,695.918 "/>
    <polygon style="fill: none; fill-opacity:0; stroke-width: 2; stroke: #000000" points="391.81,705.918 407.82,700.953 391.831,695.918 "/>
  </g>
  <g>
    <ellipse style="fill: #ffffff" cx="396.108" cy="445.654" rx="66.725" ry="22.2417"/>
    <ellipse style="fill: none; fill-opacity:0; stroke-width: 2; stroke: #000000" cx="396.108" cy="445.654" rx="66.725" ry="22.2417"/>
    <text font-size="12.8" style="fill: #000000;text-anchor:middle;font-family:sans-serif;font-style:normal;font-weight:normal" x="396.108" y="449.554">
      <tspan x="396.108" y="449.554">View booking</tspan>
    </text>
  </g>
  <g>
    <ellipse style="fill: #ffffff" cx="395.336" cy="549.369" rx="73.25" ry="24.4167"/>
    <ellipse style="fill: none; fill-opacity:0; stroke-width: 2; stroke: #000000" cx="395.336" cy="549.369" rx="73.25" ry="24.4167"/>
    <text font-size="12.8" style="fill: #000000;text-anchor:middle;font-family:sans-serif;font-style:normal;font-weight:normal" x="395.336" y="553.269">
      <tspan x="395.336" y="553.269">Cancel booking</tspan>
    </text>
  </g>
  <g>
    <line style="fill: none; fill-opacity:0; stroke-width: 2; stroke-dasharray: 6; stroke: #000000" x1="473.506" y1="533.609" x2="600.167" y2="508.071"/>
    <polygon style="fill: #000000" points="601.155,512.972 615.851,504.909 599.179,503.17 "/>
    <polygon style="fill: none; fill-opacity:0; stroke-width: 2; stroke: #000000" points="601.155,512.972 615.851,504.909 599.179,503.17 "/>
  </g>
  <g>
    <rect style="fill: #8dc2bc" x="490.706" y="532.575" width="69.3" height="14.9"/>
    <text font-size="12.8" style="fill: #000000;text-anchor:start;font-family:monospace;font-style:normal;font-weight:normal" x="490.706" y="544.475">
      <tspan x="490.706" y="544.475">«extends»</tspan>
    </text>
  </g>
  <g>
    <line style="fill: none; fill-opacity:0; stroke-width: 2; stroke-dasharray: 6; stroke: #000000" x1="467.79" y1="455.946" x2="599.949" y2="474.92"/>
    <polygon style="fill: #000000" points="599.238,479.869 615.786,477.194 600.659,469.971 "/>
    <polygon style="fill: none; fill-opacity:0; stroke-width: 2; stroke: #000000" points="599.238,479.869 615.786,477.194 600.659,469.971 "/>
  </g>
  <g>
    <rect style="fill: #8dc2bc" x="504.241" y="444.441" width="69.3" height="14.9"/>
    <text font-size="12.8" style="fill: #000000;text-anchor:start;font-family:monospace;font-style:normal;font-weight:normal" x="504.241" y="456.341">
      <tspan x="504.241" y="456.341">«extends»</tspan>
    </text>
  </g>
  <g>
    <line style="fill: none; fill-opacity:0; stroke-width: 2; stroke-dasharray: 6; stroke: #000000" x1="516.348" y1="671.489" x2="656.024" y2="529.483"/>
    <polygon style="fill: #000000" points="659.589,532.989 667.244,518.076 652.46,525.977 "/>
    <polygon style="fill: none; fill-opacity:0; stroke-width: 2; stroke: #000000" points="659.589,532.989 667.244,518.076 652.46,525.977 "/>
  </g>
  <g>
    <rect style="fill: #8dc2bc" x="511.206" y="621.848" width="77" height="14.9"/>
    <text font-size="12.8" style="fill: #000000;text-anchor:start;font-family:monospace;font-style:normal;font-weight:normal" x="511.206" y="633.748">
      <tspan x="511.206" y="633.748">«includes»</tspan>
    </text>
  </g>
  <g>
    <line style="fill: none; fill-opacity:0; stroke-width: 2; stroke: #000000" x1="368.547" y1="509.887" x2="207.008" y2="271.809"/>
    <polygon style="fill: #000000" points="364.41,512.695 377.531,523.127 372.685,507.08 "/>
    <polygon style="fill: none; fill-opacity:0; stroke-width: 2; stroke: #000000" points="364.41,512.695 377.531,523.127 372.685,507.08 "/>
  </g>
  <g>
    <line style="fill: none; fill-opacity:0; stroke-width: 2; stroke: #000000" x1="361.149" y1="410.326" x2="207.018" y2="254.567"/>
    <polygon style="fill: #000000" points="357.594,413.843 372.403,421.699 364.703,406.809 "/>
    <polygon style="fill: none; fill-opacity:0; stroke-width: 2; stroke: #000000" points="357.594,413.843 372.403,421.699 364.703,406.809 "/>
  </g>
  <g>
    <polyline style="fill: none; fill-opacity:0; stroke-width: 2; stroke-dasharray: 6; stroke: #000000" points="647.494,122.718 579.223,328.233 669.003,451.504 "/>
    <polygon style="fill: #000000" points="675.184,459.992 663.709,451.03 669.003,451.504 670.176,446.32 "/>
    <polygon style="fill: none; fill-opacity:0; stroke-width: 2; stroke: #000000" points="675.184,459.992 663.709,451.03 669.003,451.504 670.176,446.32 "/>
  </g>
  <g>
    <ellipse style="fill: #ffffff" cx="983.424" cy="-257.215" rx="80.25" ry="26.75"/>
    <ellipse style="fill: none; fill-opacity:0; stroke-width: 2; stroke: #000000" cx="983.424" cy="-257.215" rx="80.25" ry="26.75"/>
    <text font-size="12.8" style="fill: #000000;text-anchor:middle;font-family:sans-serif;font-style:normal;font-weight:normal" x="983.424" y="-253.315">
      <tspan x="983.424" y="-253.315">Store user details</tspan>
    </text>
  </g>
  <g>
    <line style="fill: none; fill-opacity:0; stroke-width: 2; stroke: #000000" x1="1003.44" y1="-214.042" x2="1145.7" y2="92.8177"/>
    <polygon style="fill: #000000" points="1007.98,-216.146 996.709,-228.558 998.903,-211.939 "/>
    <polygon style="fill: none; fill-opacity:0; stroke-width: 2; stroke: #000000" points="1007.98,-216.146 996.709,-228.558 998.903,-211.939 "/>
  </g>
  <g>
    <line style="fill: none; fill-opacity:0; stroke-width: 2; stroke-dasharray: 6; stroke: #000000" x1="928.364" y1="-227.626" x2="913.215" y2="-219.485"/>
    <polygon style="fill: #000000" points="910.848,-223.889 899.121,-211.911 915.582,-215.081 "/>
    <polygon style="fill: none; fill-opacity:0; stroke-width: 2; stroke: #000000" points="910.848,-223.889 899.121,-211.911 915.582,-215.081 "/>
  </g>
  <text font-size="12.8" style="fill: #000000;text-anchor:start;font-family:monospace;font-style:normal;font-weight:normal" x="832.166" y="-224.24">
    <tspan x="832.166" y="-224.24">«includes»</tspan>
  </text>
  <g>
    <ellipse style="fill: #ffffff" cx="605.192" cy="-258.173" rx="88.15" ry="29.3833"/>
    <ellipse style="fill: none; fill-opacity:0; stroke-width: 2; stroke: #000000" cx="605.192" cy="-258.173" rx="88.15" ry="29.3833"/>
    <text font-size="12.8" style="fill: #000000;text-anchor:middle;font-family:sans-serif;font-style:normal;font-weight:normal" x="605.192" y="-254.273">
      <tspan x="605.192" y="-254.273">Confirm registration</tspan>
    </text>
  </g>
  <g>
    <ellipse style="fill: #ffffff" cx="772.14" cy="650.236" rx="71.65" ry="23.8833"/>
    <ellipse style="fill: none; fill-opacity:0; stroke-width: 2; stroke: #000000" cx="772.14" cy="650.236" rx="71.65" ry="23.8833"/>
    <text font-size="12.8" style="fill: #000000;text-anchor:middle;font-family:sans-serif;font-style:normal;font-weight:normal" x="772.14" y="654.136">
      <tspan x="772.14" y="654.136">Check voucher</tspan>
    </text>
  </g>
  <g>
    <line style="fill: none; fill-opacity:0; stroke-width: 2; stroke-dasharray: 6; stroke: #000000" x1="569.511" y1="686.424" x2="678.823" y2="666.902"/>
    <polygon style="fill: #000000" points="679.703,671.824 694.574,664.089 677.944,661.98 "/>
    <polygon style="fill: none; fill-opacity:0; stroke-width: 2; stroke: #000000" points="679.703,671.824 694.574,664.089 677.944,661.98 "/>
  </g>
  <g>
    <rect style="fill: #8dc2bc" x="594.019" y="682.515" width="69.3" height="14.9"/>
    <text font-size="12.8" style="fill: #000000;text-anchor:start;font-family:monospace;font-style:normal;font-weight:normal" x="594.019" y="694.415">
      <tspan x="594.019" y="694.415">«extends»</tspan>
    </text>
  </g>
  <g>
    <ellipse style="fill: #ffffff" cx="868.825" cy="755.605" rx="103.175" ry="34.3917"/>
    <ellipse style="fill: none; fill-opacity:0; stroke-width: 2; stroke: #000000" cx="868.825" cy="755.605" rx="103.175" ry="34.3917"/>
    <text font-size="12.8" style="fill: #000000;text-anchor:middle;font-family:sans-serif;font-style:normal;font-weight:normal" x="868.825" y="751.505">
      <tspan x="868.825" y="751.505">Encrypt payment</tspan>
      <tspan x="868.825" y="767.505">information</tspan>
    </text>
  </g>
  <g>
    <line style="fill: none; fill-opacity:0; stroke-width: 2; stroke: #000000" x1="747.82" y1="738.33" x2="565.567" y2="712.312"/>
    <polygon style="fill: #000000" points="747.113,743.28 763.659,740.592 748.526,733.38 "/>
    <polygon style="fill: none; fill-opacity:0; stroke-width: 2; stroke: #000000" points="747.113,743.28 763.659,740.592 748.526,733.38 "/>
  </g>
  <g>
    <polyline style="fill: none; fill-opacity:0; stroke-width: 2; stroke: #000000" points="185.079,161.924 282.648,-188.514 787.286,-188.543 "/>
    <polygon style="fill: #000000" points="787.286,-183.543 803.286,-188.544 787.286,-193.543 "/>
    <polygon style="fill: none; fill-opacity:0; stroke-width: 2; stroke: #000000" points="787.286,-183.543 803.286,-188.544 787.286,-193.543 "/>
  </g>
  <g>
    <line style="fill: none; fill-opacity:0; stroke-width: 2; stroke-dasharray: 6; stroke: #000000" x1="474.218" y1="-6.5535" x2="425.728" y2="30.7828"/>
    <polygon style="fill: #000000" points="422.678,26.8211 413.05,40.544 428.778,34.7445 "/>
    <polygon style="fill: none; fill-opacity:0; stroke-width: 2; stroke: #000000" points="422.678,26.8211 413.05,40.544 428.778,34.7445 "/>
  </g>
  <g>
    <rect style="fill: #edd6b4" x="419.211" y="1.0105" width="69.3" height="14.9"/>
    <text font-size="12.8" style="fill: #000000;text-anchor:start;font-family:monospace;font-style:normal;font-weight:normal" x="419.211" y="12.9105">
      <tspan x="419.211" y="12.9105">«extends»</tspan>
    </text>
  </g>
  <g>
    <ellipse style="fill: #ffffff" cx="828.574" cy="127.958" rx="32.5" ry="20"/>
    <ellipse style="fill: none; fill-opacity:0; stroke-width: 2; stroke-dasharray: 6; stroke: #000000" cx="828.574" cy="127.958" rx="32.5" ry="20"/>
    <text font-size="12.8" style="fill: #000000;text-anchor:middle;font-family:sans-serif;font-style:normal;font-weight:normal" x="828.574" y="131.858">
      <tspan x="828.574" y="131.858">Type</tspan>
    </text>
  </g>
  <g>
    <line style="fill: none; fill-opacity:0; stroke-width: 2; stroke-dasharray: 6; stroke: #000000" x1="806.989" y1="103.976" x2="714.065" y2="0.734429"/>
    <polygon style="fill: #000000" points="717.781,-2.61053 703.361,-11.1579 710.348,4.07939 "/>
    <polygon style="fill: none; fill-opacity:0; stroke-width: 2; stroke: #000000" points="717.781,-2.61053 703.361,-11.1579 710.348,4.07939 "/>
  </g>
  <g>
    <ellipse style="fill: #ffffff" cx="851.926" cy="251.766" rx="60.7" ry="20.2333"/>
    <ellipse style="fill: none; fill-opacity:0; stroke-width: 2; stroke-dasharray: 6; stroke: #000000" cx="851.926" cy="251.766" rx="60.7" ry="20.2333"/>
    <text font-size="12.8" style="fill: #000000;text-anchor:middle;font-family:sans-serif;font-style:normal;font-weight:normal" x="851.926" y="255.666">
      <tspan x="851.926" y="255.666">Destination</tspan>
    </text>
  </g>
  <g>
    <line style="fill: none; fill-opacity:0; stroke-width: 2; stroke-dasharray: 6; stroke: #000000" x1="823.904" y1="228.02" x2="714.922" y2="135.668"/>
    <polygon style="fill: #000000" points="718.155,131.854 702.716,125.324 711.69,139.483 "/>
    <polygon style="fill: none; fill-opacity:0; stroke-width: 2; stroke: #000000" points="718.155,131.854 702.716,125.324 711.69,139.483 "/>
  </g>
  <g>
    <rect style="fill: #edd6b4" x="755.901" y="198.498" width="69.3" height="14.9"/>
    <text font-size="12.8" style="fill: #000000;text-anchor:start;font-family:monospace;font-style:normal;font-weight:normal" x="755.901" y="210.398">
      <tspan x="755.901" y="210.398">«extends»</tspan>
    </text>
  </g>
  <g>
    <ellipse style="fill: #ffffff" cx="854.966" cy="69.9221" rx="32.9" ry="20"/>
    <ellipse style="fill: none; fill-opacity:0; stroke-width: 2; stroke-dasharray: 6; stroke: #000000" cx="854.966" cy="69.9221" rx="32.9" ry="20"/>
    <text font-size="12.8" style="fill: #000000;text-anchor:middle;font-family:sans-serif;font-style:normal;font-weight:normal" x="854.966" y="73.8221">
      <tspan x="854.966" y="73.8221">Stars</tspan>
    </text>
  </g>
  <g>
    <line style="fill: none; fill-opacity:0; stroke-width: 2; stroke-dasharray: 6; stroke: #000000" x1="817.694" y1="46.9373" x2="735.398" y2="-3.81306"/>
    <polygon style="fill: #000000" points="738.023,-8.06888 721.779,-12.2114 732.774,0.442768 "/>
    <polygon style="fill: none; fill-opacity:0; stroke-width: 2; stroke: #000000" points="738.023,-8.06888 721.779,-12.2114 732.774,0.442768 "/>
  </g>
  <g>
    <rect style="fill: #edd6b4" x="728.458" y="38.4252" width="69.3" height="14.9"/>
    <text font-size="12.8" style="fill: #000000;text-anchor:start;font-family:monospace;font-style:normal;font-weight:normal" x="728.458" y="50.3252">
      <tspan x="728.458" y="50.3252">«extends»</tspan>
    </text>
  </g>
  <g>
    <ellipse style="fill: #ffffff" cx="507.629" cy="-32.279" rx="66.85" ry="22.2833"/>
    <ellipse style="fill: none; fill-opacity:0; stroke-width: 2; stroke-dasharray: 6; stroke: #000000" cx="507.629" cy="-32.279" rx="66.85" ry="22.2833"/>
    <text font-size="12.8" style="fill: #000000;text-anchor:middle;font-family:sans-serif;font-style:normal;font-weight:normal" x="507.629" y="-28.379">
      <tspan x="507.629" y="-28.379">Review Score</tspan>
    </text>
  </g>
  <g>
    <line style="fill: none; fill-opacity:0; stroke-width: 2; stroke: #000000" x1="711.325" y1="-257.904" x2="902.902" y2="-257.419"/>
    <polygon style="fill: #000000" points="711.338,-262.904 695.325,-257.944 711.313,-252.904 "/>
    <polygon style="fill: none; fill-opacity:0; stroke-width: 2; stroke: #000000" points="711.338,-262.904 695.325,-257.944 711.313,-252.904 "/>
  </g>
  <g>
    <ellipse style="fill: #ffffff" cx="748.699" cy="-118.956" rx="34.6" ry="20"/>
    <ellipse style="fill: none; fill-opacity:0; stroke-width: 2; stroke: #000000" cx="748.699" cy="-118.956" rx="34.6" ry="20"/>
    <text font-size="12.8" style="fill: #000000;text-anchor:middle;font-family:sans-serif;font-style:normal;font-weight:normal" x="748.699" y="-115.056">
      <tspan x="748.699" y="-115.056">Login</tspan>
    </text>
  </g>
  <g>
    <line style="fill: none; fill-opacity:0; stroke-width: 2; stroke: #000000" x1="1134.29" y1="304.904" x2="767.803" y2="-97.9553"/>
    <polygon style="fill: #000000" points="1130.59,308.268 1145.06,316.739 1137.99,301.539 "/>
    <polygon style="fill: none; fill-opacity:0; stroke-width: 2; stroke: #000000" points="1130.59,308.268 1145.06,316.739 1137.99,301.539 "/>
  </g>
  <g>
    <polyline style="fill: none; fill-opacity:0; stroke-width: 2; stroke: #000000" points="191.172,163.218 303.421,-118.403 696.124,-118.89 "/>
    <polygon style="fill: #000000" points="696.13,-113.89 712.123,-118.91 696.117,-123.89 "/>
    <polygon style="fill: none; fill-opacity:0; stroke-width: 2; stroke: #000000" points="696.13,-113.89 712.123,-118.91 696.117,-123.89 "/>
  </g>
  <g>
    <ellipse style="fill: #ffffff" cx="1302.74" cy="239.767" rx="6" ry="6"/>
    <ellipse style="fill: none; fill-opacity:0; stroke-width: 2; stroke: #000000" cx="1302.74" cy="239.767" rx="6" ry="6"/>
    <line style="fill: none; fill-opacity:0; stroke-width: 2; stroke: #000000" x1="1278.74" y1="251.767" x2="1326.74" y2="251.767"/>
    <line style="fill: none; fill-opacity:0; stroke-width: 2; stroke: #000000" x1="1302.74" y1="245.767" x2="1302.74" y2="275.767"/>
    <line style="fill: none; fill-opacity:0; stroke-width: 2; stroke: #000000" x1="1302.74" y1="275.767" x2="1278.74" y2="301.767"/>
    <line style="fill: none; fill-opacity:0; stroke-width: 2; stroke: #000000" x1="1302.74" y1="275.767" x2="1326.74" y2="301.767"/>
    <text font-size="12.7998" style="fill: #000000;text-anchor:middle;font-family:sans-serif;font-style:normal;font-weight:normal" x="1302.74" y="325.667">
      <tspan x="1302.74" y="325.667">Travpedia</tspan>
    </text>
  </g>
  <g>
    <line style="fill: none; fill-opacity:0; stroke-width: 2; stroke: #000000" x1="1259.45" y1="233.658" x2="1201.75" y2="177.526"/>
    <polygon style="fill: #000000" points="1255.97,237.242 1270.92,244.814 1262.94,230.074 "/>
    <polygon style="fill: none; fill-opacity:0; stroke-width: 2; stroke: #000000" points="1255.97,237.242 1270.92,244.814 1262.94,230.074 "/>
  </g>
  <g>
    <line style="fill: none; fill-opacity:0; stroke-width: 2; stroke: #000000" x1="1256.66" y1="300.382" x2="1197.49" y2="331.989"/>
    <polygon style="fill: #000000" points="1259.02,304.792 1270.77,292.843 1254.3,295.971 "/>
    <polygon style="fill: none; fill-opacity:0; stroke-width: 2; stroke: #000000" points="1259.02,304.792 1270.77,292.843 1254.3,295.971 "/>
  </g>
  <g>
    <ellipse style="fill: #ffffff" cx="745.012" cy="578.578" rx="92.6" ry="32"/>
    <ellipse style="fill: none; fill-opacity:0; stroke-width: 2; stroke: #000000" cx="745.012" cy="578.578" rx="92.6" ry="32"/>
    <text font-size="12.8" style="fill: #000000;text-anchor:middle;font-family:sans-serif;font-style:normal;font-weight:normal" x="745.012" y="574.478">
      <tspan x="745.012" y="574.478">Save payment</tspan>
      <tspan x="745.012" y="590.478">details</tspan>
    </text>
  </g>
  <g>
    <line style="fill: none; fill-opacity:0; stroke-width: 2; stroke-dasharray: 6; stroke: #000000" x1="543.18" y1="674.515" x2="656.604" y2="620.601"/>
    <polygon style="fill: #000000" points="658.751,625.117 671.055,613.732 654.458,616.085 "/>
    <polygon style="fill: none; fill-opacity:0; stroke-width: 2; stroke: #000000" points="658.751,625.117 671.055,613.732 654.458,616.085 "/>
  </g>
  <g>
    <rect style="fill: #8dc2bc" x="622.848" y="734.772" width="77" height="14.9"/>
    <text font-size="12.8" style="fill: #000000;text-anchor:start;font-family:monospace;font-style:normal;font-weight:normal" x="622.848" y="746.672">
      <tspan x="622.848" y="746.672">«includes»</tspan>
    </text>
  </g>
  <g>
    <ellipse style="fill: #ffffff" cx="526.993" cy="813.542" rx="79.775" ry="26.5917"/>
    <ellipse style="fill: none; fill-opacity:0; stroke-width: 2; stroke: #000000" cx="526.993" cy="813.542" rx="79.775" ry="26.5917"/>
    <text font-size="12.8" style="fill: #000000;text-anchor:middle;font-family:sans-serif;font-style:normal;font-weight:normal" x="526.993" y="817.442">
      <tspan x="526.993" y="817.442">Confirm payment</tspan>
    </text>
  </g>
  <g>
    <polyline style="fill: none; fill-opacity:0; stroke-width: 2; stroke: #000000" points="446.223,813.13 326.792,812.521 188.596,288.344 "/>
    <polygon style="fill: #000000" points="193.431,287.069 184.517,272.872 183.761,289.618 "/>
    <polygon style="fill: none; fill-opacity:0; stroke-width: 2; stroke: #000000" points="193.431,287.069 184.517,272.872 183.761,289.618 "/>
  </g>
  <g>
    <polyline style="fill: none; fill-opacity:0; stroke-width: 2; stroke: #000000" points="1126.69,658.553 996.746,813.819 624.767,813.599 "/>
    <polygon style="fill: #000000" points="624.77,808.599 608.768,813.59 624.765,818.599 "/>
    <polygon style="fill: none; fill-opacity:0; stroke-width: 2; stroke: #000000" points="624.77,808.599 608.768,813.59 624.765,818.599 "/>
  </g>
  <g>
    <polyline style="fill: none; fill-opacity:0; stroke-width: 2; stroke: #000000" points="516.052,-257.969 234.608,-257.327 179.59,145.074 "/>
    <polygon style="fill: #000000" points="174.636,144.397 177.422,160.927 184.544,145.752 "/>
    <polygon style="fill: none; fill-opacity:0; stroke-width: 2; stroke: #000000" points="174.636,144.397 177.422,160.927 184.544,145.752 "/>
  </g>
  <g>
    <line style="fill: none; fill-opacity:0; stroke-width: 2; stroke: #000000" x1="631.068" y1="455.138" x2="206.904" y2="236.1"/>
    <polygon style="fill: #000000" points="628.774,459.58 645.284,462.479 633.362,450.695 "/>
    <polygon style="fill: none; fill-opacity:0; stroke-width: 2; stroke: #000000" points="628.774,459.58 645.284,462.479 633.362,450.695 "/>
  </g>
  <g>
    <line style="fill: none; fill-opacity:0; stroke-width: 2; stroke: #000000" x1="1130.62" y1="368.174" x2="805.461" y2="545.595"/>
    <polygon style="fill: #000000" points="1133.02,372.563 1144.67,360.51 1128.23,363.785 "/>
    <polygon style="fill: none; fill-opacity:0; stroke-width: 2; stroke: #000000" points="1133.02,372.563 1144.67,360.51 1128.23,363.785 "/>
  </g>
  <g>
    <line style="fill: none; fill-opacity:0; stroke-width: 2; stroke-dasharray: 6; stroke: #000000" x1="797.6" y1="677.982" x2="822.525" y2="705.146"/>
    <polygon style="fill: #000000" points="818.841,708.527 833.342,716.935 826.209,701.766 "/>
    <polygon style="fill: none; fill-opacity:0; stroke-width: 2; stroke: #000000" points="818.841,708.527 833.342,716.935 826.209,701.766 "/>
  </g>
  <g>
    <rect style="fill: #8dc2bc" x="810.561" y="672.818" width="77" height="14.9"/>
    <text font-size="12.8" style="fill: #000000;text-anchor:start;font-family:monospace;font-style:normal;font-weight:normal" x="810.561" y="684.718">
      <tspan x="810.561" y="684.718">«includes»</tspan>
    </text>
  </g>
  <g>
    <line style="fill: none; fill-opacity:0; stroke-width: 2; stroke: #000000" x1="1132.02" y1="375.966" x2="804.757" y2="625.378"/>
    <polygon style="fill: #000000" points="1135.05,379.943 1144.75,366.268 1128.99,371.99 "/>
    <polygon style="fill: none; fill-opacity:0; stroke-width: 2; stroke: #000000" points="1135.05,379.943 1144.75,366.268 1128.99,371.99 "/>
  </g>
  <g>
    <line style="fill: none; fill-opacity:0; stroke-width: 2; stroke-dasharray: 6; stroke: #000000" x1="784.336" y1="-142.145" x2="805.758" y2="-156.085"/>
    <polygon style="fill: #000000" points="808.485,-151.894 819.168,-164.812 803.031,-160.276 "/>
    <polygon style="fill: none; fill-opacity:0; stroke-width: 2; stroke: #000000" points="808.485,-151.894 819.168,-164.812 803.031,-160.276 "/>
  </g>
  <text font-size="12.8" style="fill: #000000;text-anchor:start;font-family:monospace;font-style:normal;font-weight:normal" x="711.885" y="-147.531">
    <tspan x="711.885" y="-147.531">«includes»</tspan>
  </text>
  <g>
    <rect style="fill: #edd6b4" x="757.118" y="8.7073" width="69.3" height="14.9"/>
    <text font-size="12.8" style="fill: #000000;text-anchor:start;font-family:monospace;font-style:normal;font-weight:normal" x="757.118" y="20.6073">
      <tspan x="757.118" y="20.6073">«extends»</tspan>
    </text>
  </g>
</svg>
