<?xml version="1.0" encoding="UTF-8" standalone="no"?>
<!DOCTYPE svg PUBLIC "-//W3C//DTD SVG 1.0//EN" "http://www.w3.org/TR/2001/PR-SVG-20010719/DTD/svg10.dtd">
<svg width="53cm" height="36cm" viewBox="12 18 1056 704" xmlns="http://www.w3.org/2000/svg" xmlns:xlink="http://www.w3.org/1999/xlink">
  <g>
    <ellipse style="fill: #ffffff" cx="958.685" cy="232.169" rx="6" ry="6"/>
    <ellipse style="fill: none; fill-opacity:0; stroke-width: 2; stroke: #000000" cx="958.685" cy="232.169" rx="6" ry="6"/>
    <line style="fill: none; fill-opacity:0; stroke-width: 2; stroke: #000000" x1="934.685" y1="244.169" x2="982.685" y2="244.169"/>
    <line style="fill: none; fill-opacity:0; stroke-width: 2; stroke: #000000" x1="958.685" y1="238.169" x2="958.685" y2="268.169"/>
    <line style="fill: none; fill-opacity:0; stroke-width: 2; stroke: #000000" x1="958.685" y1="268.169" x2="934.685" y2="294.169"/>
    <line style="fill: none; fill-opacity:0; stroke-width: 2; stroke: #000000" x1="958.685" y1="268.169" x2="982.685" y2="294.169"/>
    <text font-size="12.7998" style="fill: #000000;text-anchor:middle;font-family:sans-serif;font-style:normal;font-weight:normal" x="958.685" y="318.069">
      <tspan x="958.685" y="318.069">Travpedia</tspan>
    </text>
  </g>
  <text font-size="12.7998" style="fill: #000000;text-anchor:start;font-family:sans-serif;font-style:normal;font-weight:normal" x="109.626" y="284.971">
    <tspan x="109.626" y="284.971"></tspan>
  </text>
  <g>
    <ellipse style="fill: #ffffff" cx="50.0654" cy="78.9038" rx="6" ry="6"/>
    <ellipse style="fill: none; fill-opacity:0; stroke-width: 2; stroke: #000000" cx="50.0654" cy="78.9038" rx="6" ry="6"/>
    <line style="fill: none; fill-opacity:0; stroke-width: 2; stroke: #000000" x1="26.0654" y1="90.9038" x2="74.0654" y2="90.9038"/>
    <line style="fill: none; fill-opacity:0; stroke-width: 2; stroke: #000000" x1="50.0654" y1="84.9038" x2="50.0654" y2="114.904"/>
    <line style="fill: none; fill-opacity:0; stroke-width: 2; stroke: #000000" x1="50.0654" y1="114.904" x2="26.0654" y2="140.904"/>
    <line style="fill: none; fill-opacity:0; stroke-width: 2; stroke: #000000" x1="50.0654" y1="114.904" x2="74.0654" y2="140.904"/>
    <text font-size="12.8" style="fill: #000000;text-anchor:middle;font-family:sans-serif;font-style:normal;font-weight:normal" x="50.0654" y="164.804">
      <tspan x="50.0654" y="164.804">Online User</tspan>
    </text>
  </g>
  <g>
    <ellipse style="fill: #ffffff" cx="894.709" cy="446.801" rx="6" ry="6"/>
    <ellipse style="fill: none; fill-opacity:0; stroke-width: 2; stroke: #000000" cx="894.709" cy="446.801" rx="6" ry="6"/>
    <line style="fill: none; fill-opacity:0; stroke-width: 2; stroke: #000000" x1="870.709" y1="458.801" x2="918.709" y2="458.801"/>
    <line style="fill: none; fill-opacity:0; stroke-width: 2; stroke: #000000" x1="894.709" y1="452.801" x2="894.709" y2="482.801"/>
    <line style="fill: none; fill-opacity:0; stroke-width: 2; stroke: #000000" x1="894.709" y1="482.801" x2="870.709" y2="508.801"/>
    <line style="fill: none; fill-opacity:0; stroke-width: 2; stroke: #000000" x1="894.709" y1="482.801" x2="918.709" y2="508.801"/>
    <text font-size="12.7998" style="fill: #000000;text-anchor:middle;font-family:sans-serif;font-style:normal;font-weight:normal" x="894.709" y="532.701">
      <tspan x="894.709" y="532.701">Third Party</tspan>
      <tspan x="894.709" y="548.701">Consortium</tspan>
    </text>
  </g>
  <g>
    <ellipse style="fill: #ffffff" cx="1013.57" cy="593.935" rx="6" ry="6"/>
    <ellipse style="fill: none; fill-opacity:0; stroke-width: 2; stroke: #000000" cx="1013.57" cy="593.935" rx="6" ry="6"/>
    <line style="fill: none; fill-opacity:0; stroke-width: 2; stroke: #000000" x1="989.566" y1="605.935" x2="1037.57" y2="605.935"/>
    <line style="fill: none; fill-opacity:0; stroke-width: 2; stroke: #000000" x1="1013.57" y1="599.935" x2="1013.57" y2="629.935"/>
    <line style="fill: none; fill-opacity:0; stroke-width: 2; stroke: #000000" x1="1013.57" y1="629.935" x2="989.566" y2="655.935"/>
    <line style="fill: none; fill-opacity:0; stroke-width: 2; stroke: #000000" x1="1013.57" y1="629.935" x2="1037.57" y2="655.935"/>
    <text font-size="12.7998" style="fill: #000000;text-anchor:middle;font-family:sans-serif;font-style:normal;font-weight:normal" x="1013.57" y="679.835">
      <tspan x="1013.57" y="679.835">Credit/Debit card</tspan>
      <tspan x="1013.57" y="695.835">Consortium</tspan>
    </text>
  </g>
  <rect style="fill: none; fill-opacity:0; stroke-width: 1; stroke: #000000" x="138.735" y="19.1055" width="695.677" height="702"/>
  <g>
    <ellipse style="fill: #ffffff" cx="542.796" cy="170.505" rx="70.1" ry="23.3667"/>
    <ellipse style="fill: none; fill-opacity:0; stroke-width: 2; stroke: #000000" cx="542.796" cy="170.505" rx="70.1" ry="23.3667"/>
    <text font-size="12.7998" style="fill: #000000;text-anchor:middle;font-family:sans-serif;font-style:normal;font-weight:normal" x="542.796" y="174.405">
      <tspan x="542.796" y="174.405">Make a search</tspan>
    </text>
  </g>
  <g>
    <line style="fill: none; fill-opacity:0; stroke-width: 2; stroke: #000000" x1="454.801" y1="160.576" x2="87.3119" y2="119.107"/>
    <polygon style="fill: #000000" points="454.241,165.544 470.7,162.37 455.362,155.607 "/>
    <polygon style="fill: none; fill-opacity:0; stroke-width: 2; stroke: #000000" points="454.241,165.544 470.7,162.37 455.362,155.607 "/>
  </g>
  <g>
    <ellipse style="fill: #ffffff" cx="509.966" cy="557.317" rx="50.375" ry="20"/>
    <ellipse style="fill: none; fill-opacity:0; stroke-width: 2; stroke: #000000" cx="509.966" cy="557.317" rx="50.375" ry="20"/>
    <text font-size="12.7998" style="fill: #000000;text-anchor:middle;font-family:sans-serif;font-style:normal;font-weight:normal" x="509.966" y="561.217">
      <tspan x="509.966" y="561.217">Register</tspan>
    </text>
  </g>
  <g>
    <ellipse style="fill: #ffffff" cx="639.874" cy="676.028" rx="50.8" ry="20"/>
    <ellipse style="fill: none; fill-opacity:0; stroke-width: 2; stroke: #000000" cx="639.874" cy="676.028" rx="50.8" ry="20"/>
    <text font-size="12.7998" style="fill: #000000;text-anchor:middle;font-family:sans-serif;font-style:normal;font-weight:normal" x="639.874" y="679.928">
      <tspan x="639.874" y="679.928">Pay fees</tspan>
    </text>
  </g>
  <g>
    <line style="fill: none; fill-opacity:0; stroke-width: 2; stroke: #000000" x1="441.926" y1="543.755" x2="81.1708" y2="471.851"/>
    <polygon style="fill: #000000" points="440.949,548.659 457.617,546.883 442.903,538.852 "/>
    <polygon style="fill: none; fill-opacity:0; stroke-width: 2; stroke: #000000" points="440.949,548.659 457.617,546.883 442.903,538.852 "/>
  </g>
  <g>
    <line style="fill: none; fill-opacity:0; stroke-width: 2; stroke: #000000" x1="376.059" y1="636.191" x2="81.1727" y2="481.741"/>
    <polygon style="fill: #000000" points="373.739,640.621 390.232,643.615 378.378,631.762 "/>
    <polygon style="fill: none; fill-opacity:0; stroke-width: 2; stroke: #000000" points="373.739,640.621 390.232,643.615 378.378,631.762 "/>
  </g>
  <g>
    <line style="fill: none; fill-opacity:0; stroke-width: 2; stroke: #000000" x1="913.502" y1="297.284" x2="542.53" y2="536.333"/>
    <polygon style="fill: #000000" points="916.21,301.487 926.951,288.617 910.794,293.081 "/>
    <polygon style="fill: none; fill-opacity:0; stroke-width: 2; stroke: #000000" points="916.21,301.487 926.951,288.617 910.794,293.081 "/>
  </g>
  <g>
    <line style="fill: none; fill-opacity:0; stroke-width: 2; stroke: #000000" x1="942.089" y1="619.628" x2="561.236" y2="564.71"/>
    <polygon style="fill: #000000" points="941.375,624.577 957.925,621.912 942.803,614.68 "/>
    <polygon style="fill: none; fill-opacity:0; stroke-width: 2; stroke: #000000" points="941.375,624.577 957.925,621.912 942.803,614.68 "/>
  </g>
  <g>
    <line style="fill: none; fill-opacity:0; stroke-width: 2; stroke: #000000" x1="941.988" y1="638.764" x2="691.677" y2="669.639"/>
    <polygon style="fill: #000000" points="942.6,643.726 957.868,636.805 941.376,633.802 "/>
    <polygon style="fill: none; fill-opacity:0; stroke-width: 2; stroke: #000000" points="942.6,643.726 957.868,636.805 941.376,633.802 "/>
  </g>
  <g>
    <line style="fill: none; fill-opacity:0; stroke-width: 2; stroke: #000000" x1="841.139" y1="493.176" x2="561.3" y2="547.375"/>
    <polygon style="fill: #000000" points="842.09,498.085 856.847,490.134 840.188,488.267 "/>
    <polygon style="fill: none; fill-opacity:0; stroke-width: 2; stroke: #000000" points="842.09,498.085 856.847,490.134 840.188,488.267 "/>
  </g>
  <g>
    <line style="fill: none; fill-opacity:0; stroke-width: 2; stroke: #000000" x1="911.034" y1="256.979" x2="613.884" y2="187.199"/>
    <polygon style="fill: #000000" points="909.891,261.846 926.61,260.636 912.177,252.111 "/>
    <polygon style="fill: none; fill-opacity:0; stroke-width: 2; stroke: #000000" points="909.891,261.846 926.61,260.636 912.177,252.111 "/>
  </g>
  <g>
    <ellipse style="fill: #ffffff" cx="465.316" cy="55.0222" rx="74.375" ry="24.7917"/>
    <ellipse style="fill: none; fill-opacity:0; stroke-width: 2; stroke: #000000" cx="465.316" cy="55.0222" rx="74.375" ry="24.7917"/>
    <text font-size="12.7998" style="fill: #000000;text-anchor:middle;font-family:sans-serif;font-style:normal;font-weight:normal" x="465.316" y="58.9222">
      <tspan x="465.316" y="58.9222">Make a booking</tspan>
    </text>
  </g>
  <g>
    <line style="fill: none; fill-opacity:0; stroke-width: 2; stroke: #000000" x1="373.14" y1="68.3146" x2="87.297" y2="109.535"/>
    <polygon style="fill: #000000" points="373.853,73.2634 388.976,66.0309 372.426,63.3658 "/>
    <polygon style="fill: none; fill-opacity:0; stroke-width: 2; stroke: #000000" points="373.853,73.2634 388.976,66.0309 372.426,63.3658 "/>
  </g>
  <g>
    <line style="fill: none; fill-opacity:0; stroke-width: 2; stroke: #000000" x1="911.988" y1="247.994" x2="524.096" y2="80.4166"/>
    <polygon style="fill: #000000" points="910.005,252.584 926.676,254.34 913.971,243.404 "/>
    <polygon style="fill: none; fill-opacity:0; stroke-width: 2; stroke: #000000" points="910.005,252.584 926.676,254.34 913.971,243.404 "/>
  </g>
  <g>
    <line style="fill: none; fill-opacity:0; stroke-width: 2; stroke: #000000" x1="937.435" y1="339.461" x2="911.103" y2="427.8"/>
    <polygon style="fill: #000000" points="942.226,340.889 942.005,324.128 932.643,338.033 "/>
    <polygon style="fill: none; fill-opacity:0; stroke-width: 2; stroke: #000000" points="942.226,340.889 942.005,324.128 932.643,338.033 "/>
  </g>
  <g>
    <ellipse style="fill: #ffffff" cx="409.003" cy="485.139" rx="73.825" ry="24.6083"/>
    <ellipse style="fill: none; fill-opacity:0; stroke-width: 2; stroke: #000000" cx="409.003" cy="485.139" rx="73.825" ry="24.6083"/>
    <text font-size="12.7998" style="fill: #000000;text-anchor:middle;font-family:sans-serif;font-style:normal;font-weight:normal" x="409.003" y="489.039">
      <tspan x="409.003" y="489.039">Display adverts</tspan>
    </text>
  </g>
  <g>
    <line style="fill: none; fill-opacity:0; stroke-width: 2; stroke: #000000" x1="489.668" y1="453.299" x2="927.601" y2="280.438"/>
    <polygon style="fill: #000000" points="487.832,448.648 474.785,459.174 491.504,457.95 "/>
    <polygon style="fill: none; fill-opacity:0; stroke-width: 2; stroke: #000000" points="487.832,448.648 474.785,459.174 491.504,457.95 "/>
  </g>
  <g>
    <line style="fill: none; fill-opacity:0; stroke-width: 2; stroke: #000000" x1="99.1528" y1="165.536" x2="384.181" y2="459.536"/>
    <polygon style="fill: #000000" points="102.743,162.056 88.0157,154.049 95.5629,169.017 "/>
    <polygon style="fill: none; fill-opacity:0; stroke-width: 2; stroke: #000000" points="102.743,162.056 88.0157,154.049 95.5629,169.017 "/>
  </g>
  <g>
    <line style="fill: none; fill-opacity:0; stroke-width: 2; stroke: #000000" x1="969.577" y1="339.968" x2="1005.22" y2="574.944"/>
    <polygon style="fill: #000000" points="974.521,339.218 967.178,324.149 964.634,340.718 "/>
    <polygon style="fill: none; fill-opacity:0; stroke-width: 2; stroke: #000000" points="974.521,339.218 967.178,324.149 964.634,340.718 "/>
  </g>
  <g>
    <line style="fill: none; fill-opacity:0; stroke-width: 2; stroke: #000000" x1="1002.67" y1="558.136" x2="967.028" y2="323.16"/>
    <polygon style="fill: #000000" points="997.73,558.886 1005.07,573.955 1007.62,557.386 "/>
    <polygon style="fill: none; fill-opacity:0; stroke-width: 2; stroke: #000000" points="997.73,558.886 1005.07,573.955 1007.62,557.386 "/>
  </g>
  <g>
    <line style="fill: none; fill-opacity:0; stroke-width: 2; stroke: #000000" x1="915.959" y1="411.508" x2="942.291" y2="323.169"/>
    <polygon style="fill: #000000" points="911.167,410.08 911.389,426.842 920.751,412.937 "/>
    <polygon style="fill: none; fill-opacity:0; stroke-width: 2; stroke: #000000" points="911.167,410.08 911.389,426.842 920.751,412.937 "/>
  </g>
  <g>
    <ellipse style="fill: #ffffff" cx="927.728" cy="47.0054" rx="6" ry="6"/>
    <ellipse style="fill: none; fill-opacity:0; stroke-width: 2; stroke: #000000" cx="927.728" cy="47.0054" rx="6" ry="6"/>
    <line style="fill: none; fill-opacity:0; stroke-width: 2; stroke: #000000" x1="903.728" y1="59.0054" x2="951.728" y2="59.0054"/>
    <line style="fill: none; fill-opacity:0; stroke-width: 2; stroke: #000000" x1="927.728" y1="53.0054" x2="927.728" y2="83.0054"/>
    <line style="fill: none; fill-opacity:0; stroke-width: 2; stroke: #000000" x1="927.728" y1="83.0054" x2="903.728" y2="109.005"/>
    <line style="fill: none; fill-opacity:0; stroke-width: 2; stroke: #000000" x1="927.728" y1="83.0054" x2="951.728" y2="109.005"/>
    <text font-size="12.7998" style="fill: #000000;text-anchor:middle;font-family:sans-serif;font-style:normal;font-weight:normal" x="927.728" y="132.905">
      <tspan x="927.728" y="132.905">Servers</tspan>
    </text>
  </g>
  <g>
    <ellipse style="fill: #ffffff" cx="727.3" cy="58.786" rx="66.05" ry="22.0167"/>
    <ellipse style="fill: none; fill-opacity:0; stroke-width: 2; stroke: #000000" cx="727.3" cy="58.786" rx="66.05" ry="22.0167"/>
    <text font-size="12.7998" style="fill: #000000;text-anchor:middle;font-family:sans-serif;font-style:normal;font-weight:normal" x="727.3" y="62.686">
      <tspan x="727.3" y="62.686">Make backup</tspan>
    </text>
  </g>
  <g>
    <line style="fill: none; fill-opacity:0; stroke-width: 2; stroke: #000000" x1="811.228" y1="68.9276" x2="901.733" y2="79.8641"/>
    <polygon style="fill: #000000" points="811.827,63.9637 795.343,67.0082 810.628,73.8915 "/>
    <polygon style="fill: none; fill-opacity:0; stroke-width: 2; stroke: #000000" points="811.827,63.9637 795.343,67.0082 810.628,73.8915 "/>
  </g>
  <g>
    <line style="fill: none; fill-opacity:0; stroke-width: 2; stroke: #000000" x1="939.726" y1="154.766" x2="949.491" y2="213.176"/>
    <polygon style="fill: #000000" points="944.657,153.941 937.087,138.985 934.794,155.59 "/>
    <polygon style="fill: none; fill-opacity:0; stroke-width: 2; stroke: #000000" points="944.657,153.941 937.087,138.985 934.794,155.59 "/>
  </g>
  <g>
    <ellipse style="fill: #ffffff" cx="406.86" cy="211.149" rx="32.5" ry="20"/>
    <ellipse style="fill: none; fill-opacity:0; stroke-width: 2; stroke: #000000" cx="406.86" cy="211.149" rx="32.5" ry="20"/>
    <text font-size="12.7998" style="fill: #000000;text-anchor:middle;font-family:sans-serif;font-style:normal;font-weight:normal" x="406.86" y="215.049">
      <tspan x="406.86" y="215.049">Rank</tspan>
    </text>
  </g>
  <g>
    <ellipse style="fill: #ffffff" cx="447.533" cy="295.367" rx="45.75" ry="20"/>
    <ellipse style="fill: none; fill-opacity:0; stroke-width: 2; stroke: #000000" cx="447.533" cy="295.367" rx="45.75" ry="20"/>
    <text font-size="12.7998" style="fill: #000000;text-anchor:middle;font-family:sans-serif;font-style:normal;font-weight:normal" x="447.533" y="299.267">
      <tspan x="447.533" y="299.267">Review</tspan>
    </text>
  </g>
  <g>
    <line style="fill: none; fill-opacity:0; stroke-width: 2; stroke: #000000" x1="356.943" y1="197.684" x2="87.315" y2="124.952"/>
    <polygon style="fill: #000000" points="355.641,202.511 372.391,201.851 358.245,192.856 "/>
    <polygon style="fill: none; fill-opacity:0; stroke-width: 2; stroke: #000000" points="355.641,202.511 372.391,201.851 358.245,192.856 "/>
  </g>
  <g>
    <line style="fill: none; fill-opacity:0; stroke-width: 2; stroke: #000000" x1="385.816" y1="267.345" x2="81.1176" y2="129.002"/>
    <polygon style="fill: #000000" points="383.748,271.898 400.384,273.959 387.883,262.792 "/>
    <polygon style="fill: none; fill-opacity:0; stroke-width: 2; stroke: #000000" points="383.748,271.898 400.384,273.959 387.883,262.792 "/>
  </g>
  <g>
    <line style="fill: none; fill-opacity:0; stroke-width: 2; stroke: #000000" x1="910.625" y1="265.124" x2="722.337" y2="253.196"/>
    <polygon style="fill: #000000" points="910.309,270.114 926.593,266.136 910.941,260.134 "/>
    <polygon style="fill: none; fill-opacity:0; stroke-width: 2; stroke: #000000" points="910.309,270.114 926.593,266.136 910.941,260.134 "/>
  </g>
  <g>
    <ellipse style="fill: #ffffff" cx="413.851" cy="393.8" rx="36.95" ry="20"/>
    <ellipse style="fill: none; fill-opacity:0; stroke-width: 2; stroke: #000000" cx="413.851" cy="393.8" rx="36.95" ry="20"/>
    <text font-size="12.7998" style="fill: #000000;text-anchor:middle;font-family:sans-serif;font-style:normal;font-weight:normal" x="413.851" y="397.7">
      <tspan x="413.851" y="397.7">Share</tspan>
    </text>
  </g>
  <g>
    <line style="fill: none; fill-opacity:0; stroke-width: 2; stroke: #000000" x1="372.982" y1="362.468" x2="87.301" y2="143.45"/>
    <polygon style="fill: #000000" points="369.94,366.436 385.68,372.203 376.024,358.5 "/>
    <polygon style="fill: none; fill-opacity:0; stroke-width: 2; stroke: #000000" points="369.94,366.436 385.68,372.203 376.024,358.5 "/>
  </g>
  <g>
    <line style="fill: none; fill-opacity:0; stroke-width: 2; stroke: #000000" x1="911.019" y1="279.16" x2="451.802" y2="385.049"/>
    <polygon style="fill: #000000" points="912.143,284.032 926.61,275.565 909.896,274.288 "/>
    <polygon style="fill: none; fill-opacity:0; stroke-width: 2; stroke: #000000" points="912.143,284.032 926.61,275.565 909.896,274.288 "/>
  </g>
  <g>
    <line style="fill: none; fill-opacity:0; stroke-width: 2; stroke: #000000" x1="100.792" y1="153.794" x2="386.474" y2="372.811"/>
    <polygon style="fill: #000000" points="103.835,149.826 88.0946,144.059 97.7503,157.762 "/>
    <polygon style="fill: none; fill-opacity:0; stroke-width: 2; stroke: #000000" points="103.835,149.826 88.0946,144.059 97.7503,157.762 "/>
  </g>
  <g>
    <line style="fill: none; fill-opacity:0; stroke-width: 2; stroke-dasharray: 8; stroke: #000000" x1="513.387" y1="579.39" x2="623.624" y2="646.182"/>
    <polygon style="fill: #000000" points="621.551,649.603 635.598,653.437 625.697,642.761 "/>
    <polygon style="fill: none; fill-opacity:0; stroke-width: 2; stroke: #000000" points="621.551,649.603 635.598,653.437 625.697,642.761 "/>
  </g>
  <text font-size="12.8" style="fill: #000000;text-anchor:start;font-family:Droid Sans Mono;font-style:normal;font-weight:normal" x="553.088" y="601.858">
    <tspan x="553.088" y="601.858">«extends»</tspan>
  </text>
  <g>
    <ellipse style="fill: #ffffff" cx="50.6932" cy="429.777" rx="6" ry="6"/>
    <ellipse style="fill: none; fill-opacity:0; stroke-width: 2; stroke: #000000" cx="50.6932" cy="429.777" rx="6" ry="6"/>
    <line style="fill: none; fill-opacity:0; stroke-width: 2; stroke: #000000" x1="26.6932" y1="441.777" x2="74.6932" y2="441.777"/>
    <line style="fill: none; fill-opacity:0; stroke-width: 2; stroke: #000000" x1="50.6932" y1="435.777" x2="50.6932" y2="465.777"/>
    <line style="fill: none; fill-opacity:0; stroke-width: 2; stroke: #000000" x1="50.6932" y1="465.777" x2="26.6932" y2="491.777"/>
    <line style="fill: none; fill-opacity:0; stroke-width: 2; stroke: #000000" x1="50.6932" y1="465.777" x2="74.6932" y2="491.777"/>
    <text font-size="12.8" style="fill: #000000;text-anchor:middle;font-family:sans-serif;font-style:normal;font-weight:normal" x="50.6932" y="515.677">
      <tspan x="50.6932" y="515.677">Company</tspan>
    </text>
  </g>
  <g>
    <ellipse style="fill: #ffffff" cx="665.981" cy="249.626" rx="55.35" ry="20"/>
    <ellipse style="fill: none; fill-opacity:0; stroke-width: 2; stroke: #000000" cx="665.981" cy="249.626" rx="55.35" ry="20"/>
    <text font-size="12.7998" style="fill: #000000;text-anchor:middle;font-family:sans-serif;font-style:normal;font-weight:normal" x="665.981" y="253.526">
      <tspan x="665.981" y="253.526">Comment</tspan>
    </text>
  </g>
  <g>
    <line style="fill: none; fill-opacity:0; stroke-width: 2; stroke-dasharray: 8; stroke: #000000" x1="444.322" y1="216.711" x2="590.853" y2="238.47"/>
    <polygon style="fill: #000000" points="590.265,242.427 604.701,240.527 591.44,234.514 "/>
    <polygon style="fill: none; fill-opacity:0; stroke-width: 2; stroke: #000000" points="590.265,242.427 604.701,240.527 591.44,234.514 "/>
  </g>
  <g>
    <line style="fill: none; fill-opacity:0; stroke-width: 2; stroke-dasharray: 8; stroke: #000000" x1="498.201" y1="284.758" x2="591.033" y2="265.32"/>
    <polygon style="fill: #000000" points="591.853,269.235 604.736,262.451 590.213,261.405 "/>
    <polygon style="fill: none; fill-opacity:0; stroke-width: 2; stroke: #000000" points="591.853,269.235 604.736,262.451 590.213,261.405 "/>
  </g>
  <text font-size="12.8" style="fill: #000000;text-anchor:start;font-family:Droid Sans Mono;font-style:normal;font-weight:normal" x="487.322" y="219.986">
    <tspan x="487.322" y="219.986">«extends»</tspan>
  </text>
  <text font-size="12.8" style="fill: #000000;text-anchor:start;font-family:Droid Sans Mono;font-style:normal;font-weight:normal" x="486.542" y="271.027">
    <tspan x="486.542" y="271.027">«extends»</tspan>
  </text>
  <g>
    <ellipse style="fill: #ffffff" cx="449.159" cy="674.479" rx="57.05" ry="32"/>
    <ellipse style="fill: none; fill-opacity:0; stroke-width: 2; stroke: #000000" cx="449.159" cy="674.479" rx="57.05" ry="32"/>
    <text font-size="12.7998" style="fill: #000000;text-anchor:middle;font-family:sans-serif;font-style:normal;font-weight:normal" x="449.159" y="670.379">
      <tspan x="449.159" y="670.379">Monthly</tspan>
      <tspan x="449.159" y="686.379">payment</tspan>
    </text>
  </g>
  <g>
    <line style="fill: none; fill-opacity:0; stroke-width: 2; stroke-dasharray: 8; stroke: #000000" x1="511.197" y1="674.983" x2="569.069" y2="675.453"/>
    <polygon style="fill: #000000" points="569.037,679.453 583.069,675.567 569.102,671.453 "/>
    <polygon style="fill: none; fill-opacity:0; stroke-width: 2; stroke: #000000" points="569.037,679.453 583.069,675.567 569.102,671.453 "/>
  </g>
  <text font-size="12.8" style="fill: #000000;text-anchor:start;font-family:Droid Sans Mono;font-style:normal;font-weight:normal" x="510.735" y="690.591">
    <tspan x="510.735" y="690.591">«extends»</tspan>
  </text>
  <g>
    <line style="fill: none; fill-opacity:0; stroke-width: 2; stroke-dasharray: 8; stroke: #000000" x1="497.223" y1="581.87" x2="475.028" y2="624.634"/>
    <polygon style="fill: #000000" points="471.478,622.792 468.579,637.06 478.578,626.477 "/>
    <polygon style="fill: none; fill-opacity:0; stroke-width: 2; stroke: #000000" points="471.478,622.792 468.579,637.06 478.578,626.477 "/>
  </g>
  <text font-size="12.8" style="fill: #000000;text-anchor:start;font-family:Droid Sans Mono;font-style:normal;font-weight:normal" x="413.961" y="596.158">
    <tspan x="413.961" y="596.158">«includes»</tspan>
  </text>
  <g>
    <line style="fill: none; fill-opacity:0; stroke-width: 2; stroke-dasharray: 8; stroke: #000000" x1="484.843" y1="84.1274" x2="515.862" y2="130.361"/>
    <polygon style="fill: #000000" points="512.541,132.589 523.662,141.986 519.184,128.132 "/>
    <polygon style="fill: none; fill-opacity:0; stroke-width: 2; stroke: #000000" points="512.541,132.589 523.662,141.986 519.184,128.132 "/>
  </g>
  <text font-size="12.8" style="fill: #000000;text-anchor:start;font-family:Droid Sans Mono;font-style:normal;font-weight:normal" x="420.204" y="109.945">
    <tspan x="420.204" y="109.945">«includes»</tspan>
  </text>
  <g>
    <line style="fill: none; fill-opacity:0; stroke-width: 2; stroke-dasharray: 8; stroke: #000000" x1="454.041" y1="370.818" x2="612.77" y2="280.054"/>
    <polygon style="fill: #000000" points="614.755,283.526 624.923,273.104 610.784,276.582 "/>
    <polygon style="fill: none; fill-opacity:0; stroke-width: 2; stroke: #000000" points="614.755,283.526 624.923,273.104 610.784,276.582 "/>
  </g>
  <text font-size="12.8" style="fill: #000000;text-anchor:start;font-family:Droid Sans Mono;font-style:normal;font-weight:normal" x="517.759" y="340.174">
    <tspan x="517.759" y="340.174">«includes»</tspan>
  </text>
</svg>
